<svg width="171" height="48" viewBox="0 0 171 48" fill="none" xmlns="http://www.w3.org/2000/svg">
<g clip-path="url(#clip0_1_735)">
<rect width="171" height="48" fill="white"/>
<path d="M47.892 34.238H53.592C54.808 34.238 55.606 33.8833 55.986 33.174C56.366 32.4647 56.6447 31.2613 56.822 29.564C57.81 29.564 58.5067 29.602 58.912 29.678C59.0133 31.1473 59.064 32.4267 59.064 33.516C59.064 34.6053 59.0513 35.5047 59.026 36.214H40.52C40.52 36.062 40.52 35.834 40.52 35.53C40.52 35.2007 40.5833 34.846 40.71 34.466C41.546 34.3393 42.154 34.1367 42.534 33.858C42.914 33.5793 43.104 33.0853 43.104 32.376V14.326C42.42 13.9967 41.5207 13.832 40.406 13.832C40.406 13.072 40.4693 12.4893 40.596 12.084H58.646C58.646 12.616 58.646 13.4393 58.646 14.554C58.646 15.6687 58.5827 16.948 58.456 18.392C57.9493 18.4427 57.2907 18.468 56.48 18.468C56.252 16.416 55.948 15.2 55.568 14.82C55.036 14.288 54.3013 14.022 53.364 14.022H47.892V23.066L53.364 22.648H54.846V25.422H53.364L47.892 25.118V34.238ZM69.4517 34.238H71.8077C74.3157 34.238 76.2283 33.364 77.5457 31.616C78.863 29.8427 79.5217 27.3473 79.5217 24.13C79.5217 20.9127 78.8503 18.43 77.5077 16.682C76.1903 14.9087 74.227 14.022 71.6177 14.022H69.4517V34.238ZM72.1877 12.084C75.861 12.084 78.863 13.148 81.1937 15.276C83.5243 17.3787 84.6897 20.3427 84.6897 24.168C84.6897 27.968 83.5623 30.932 81.3077 33.06C79.0783 35.1627 76.1777 36.214 72.6057 36.214H62.0797C62.0797 36.0367 62.0797 35.796 62.0797 35.492C62.0797 35.188 62.1303 34.846 62.2317 34.466C63.0677 34.3393 63.6757 34.1367 64.0557 33.858C64.4357 33.5793 64.6257 33.0853 64.6257 32.376V14.288C63.9417 13.984 63.0677 13.832 62.0037 13.832C62.0037 13.7307 62.0037 13.5533 62.0037 13.3C62.0037 13.0467 62.0417 12.6413 62.1177 12.084H72.1877ZM111.556 12.084C111.582 12.2613 111.594 12.5147 111.594 12.844C111.594 13.148 111.531 13.4773 111.404 13.832C110.568 13.9333 109.96 14.136 109.58 14.44C109.2 14.7187 109.01 15.2127 109.01 15.922V28.5C109.01 31.3373 108.136 33.4147 106.388 34.732C104.666 36.0493 102.297 36.708 99.2823 36.708C96.2676 36.708 93.8989 36.0493 92.1763 34.732C90.4536 33.4147 89.5923 31.3373 89.5923 28.5V14.326C88.8576 13.9967 87.9836 13.832 86.9703 13.832C86.9449 13.7307 86.9323 13.566 86.9323 13.338C86.9323 13.0847 86.9829 12.6667 87.0843 12.084H96.9263C96.9263 12.2613 96.9263 12.5147 96.9263 12.844C96.9263 13.148 96.8756 13.4773 96.7743 13.832C95.9636 13.9333 95.3556 14.136 94.9503 14.44C94.5703 14.7187 94.3803 15.2127 94.3803 15.922V28.576C94.3803 32.4013 96.0143 34.314 99.2823 34.314C102.55 34.314 104.184 32.4013 104.184 28.576V14.288C103.45 13.984 102.563 13.832 101.524 13.832C101.524 13.0973 101.575 12.5147 101.676 12.084H111.556Z" fill="#0056D2"/>
<path d="M42.404 43.406H43.304C43.496 43.406 43.622 43.35 43.682 43.238C43.742 43.126 43.786 42.936 43.814 42.668C43.97 42.668 44.08 42.674 44.144 42.686C44.16 42.918 44.168 43.12 44.168 43.292C44.168 43.464 44.166 43.606 44.162 43.718H41.24C41.24 43.694 41.24 43.658 41.24 43.61C41.24 43.558 41.25 43.502 41.27 43.442C41.402 43.422 41.498 43.39 41.558 43.346C41.618 43.302 41.648 43.224 41.648 43.112V40.262C41.54 40.21 41.398 40.184 41.222 40.184C41.222 40.064 41.232 39.972 41.252 39.908H44.102C44.102 39.992 44.102 40.122 44.102 40.298C44.102 40.474 44.092 40.676 44.072 40.904C43.992 40.912 43.888 40.916 43.76 40.916C43.724 40.592 43.676 40.4 43.616 40.34C43.532 40.256 43.416 40.214 43.268 40.214H42.404V41.642L43.268 41.576H43.502V42.014H43.268L42.404 41.966V43.406ZM46.1442 41.294C45.8882 41.294 45.6982 41.372 45.5742 41.528C45.4502 41.68 45.3882 41.944 45.3882 42.32C45.3882 42.992 45.6002 43.328 46.0242 43.328C46.1882 43.328 46.3342 43.284 46.4622 43.196V41.324C46.3542 41.304 46.2482 41.294 46.1442 41.294ZM47.6802 43.454C47.4882 43.682 47.2742 43.796 47.0382 43.796C46.8022 43.796 46.6282 43.698 46.5162 43.502C46.2882 43.694 46.0282 43.79 45.7362 43.79C45.4482 43.79 45.1862 43.67 44.9502 43.43C44.7182 43.19 44.6022 42.842 44.6022 42.386C44.6022 41.93 44.7622 41.568 45.0822 41.3C45.4022 41.028 45.8102 40.892 46.3062 40.892C46.3742 40.892 46.4262 40.894 46.4622 40.898V39.908C46.4222 39.904 46.3682 39.902 46.3002 39.902C46.2322 39.902 46.1502 39.904 46.0542 39.908C46.0622 39.784 46.0762 39.694 46.0962 39.638C46.4442 39.514 46.8142 39.438 47.2062 39.41V43.028C47.2062 43.232 47.2662 43.334 47.3862 43.334C47.4142 43.334 47.4882 43.322 47.6082 43.298L47.6802 43.454ZM50.808 41.51V43.244C50.936 43.264 51.056 43.274 51.168 43.274C51.18 43.322 51.186 43.368 51.186 43.412C51.186 43.456 51.184 43.494 51.18 43.526C50.88 43.662 50.536 43.736 50.148 43.748C50.112 43.564 50.088 43.38 50.076 43.196C49.86 43.592 49.548 43.79 49.14 43.79C48.88 43.79 48.668 43.708 48.504 43.544C48.34 43.376 48.258 43.144 48.258 42.848V41.402C48.198 41.398 48.136 41.396 48.072 41.396C48.012 41.396 47.958 41.396 47.91 41.396C47.918 41.276 47.932 41.188 47.952 41.132C48.304 41 48.652 40.924 48.996 40.904V42.764C48.996 42.932 49.036 43.062 49.116 43.154C49.2 43.242 49.308 43.286 49.44 43.286C49.708 43.286 49.918 43.094 50.07 42.71V41.66C50.07 41.42 49.986 41.264 49.818 41.192C49.834 41.116 49.854 41.06 49.878 41.024C50.098 40.94 50.334 40.898 50.586 40.898C50.666 40.898 50.748 40.902 50.832 40.91C50.816 41.054 50.808 41.254 50.808 41.51ZM52.8821 43.796C52.5421 43.796 52.2421 43.674 51.9821 43.43C51.7261 43.182 51.5981 42.836 51.5981 42.392C51.5981 41.944 51.7421 41.582 52.0301 41.306C52.3181 41.03 52.6741 40.892 53.0981 40.892C53.3741 40.892 53.6401 40.956 53.8961 41.084C53.8921 41.324 53.8641 41.586 53.8121 41.87C53.7681 41.87 53.7061 41.862 53.6261 41.846C53.6141 41.666 53.5561 41.524 53.4521 41.42C53.3521 41.316 53.2261 41.264 53.0741 41.264C52.8661 41.264 52.6981 41.352 52.5701 41.528C52.4461 41.704 52.3841 41.968 52.3841 42.32C52.3841 42.668 52.4481 42.926 52.5761 43.094C52.7081 43.258 52.8861 43.34 53.1101 43.34C53.3381 43.34 53.5981 43.272 53.8901 43.136L54.0041 43.304C53.6761 43.632 53.3021 43.796 52.8821 43.796ZM55.0913 42.968C55.0913 43.076 55.1213 43.162 55.1813 43.226C55.2453 43.29 55.3413 43.322 55.4693 43.322C55.6013 43.322 55.7193 43.264 55.8233 43.148V42.368L55.5593 42.44C55.2473 42.528 55.0913 42.704 55.0913 42.968ZM56.4413 43.796C56.3053 43.796 56.1813 43.768 56.0693 43.712C55.9613 43.652 55.8873 43.568 55.8473 43.46C55.6553 43.684 55.4253 43.796 55.1573 43.796C54.8933 43.796 54.6853 43.724 54.5333 43.58C54.3813 43.436 54.3053 43.252 54.3053 43.028C54.3053 42.804 54.3773 42.626 54.5213 42.494C54.6653 42.362 54.8833 42.266 55.1753 42.206L55.8233 42.074V41.858C55.8233 41.706 55.7853 41.596 55.7093 41.528C55.6373 41.456 55.5033 41.42 55.3073 41.42C55.1153 41.42 54.8933 41.464 54.6413 41.552L54.4913 41.33C54.8273 41.038 55.2153 40.892 55.6553 40.892C55.9553 40.892 56.1813 40.974 56.3333 41.138C56.4853 41.302 56.5613 41.534 56.5613 41.834V43.028C56.5613 43.232 56.6253 43.334 56.7533 43.334C56.7733 43.334 56.8473 43.322 56.9753 43.298L57.0353 43.454C56.8513 43.682 56.6533 43.796 56.4413 43.796ZM58.3503 43.79C58.1223 43.79 57.9383 43.722 57.7983 43.586C57.6583 43.446 57.5883 43.24 57.5883 42.968V41.366C57.4763 41.35 57.3483 41.342 57.2043 41.342C57.2043 41.258 57.2083 41.18 57.2163 41.108C57.3163 41.068 57.4383 41.03 57.5823 40.994L58.1763 40.124L58.3263 40.166V40.988C58.6063 40.98 58.8603 40.962 59.0883 40.934C59.0883 41.086 59.0703 41.222 59.0343 41.342H58.3263L58.3323 42.932C58.3323 43.168 58.4243 43.286 58.6083 43.286C58.7603 43.286 58.9143 43.226 59.0703 43.106L59.1963 43.268C58.9523 43.616 58.6703 43.79 58.3503 43.79ZM60.5645 40.442C60.4765 40.53 60.3705 40.574 60.2465 40.574C60.1225 40.574 60.0165 40.53 59.9285 40.442C59.8405 40.354 59.7965 40.248 59.7965 40.124C59.7965 40 59.8405 39.894 59.9285 39.806C60.0165 39.718 60.1225 39.674 60.2465 39.674C60.3745 39.674 60.4805 39.718 60.5645 39.806C60.6525 39.89 60.6965 39.996 60.6965 40.124C60.6965 40.248 60.6525 40.354 60.5645 40.442ZM60.9845 43.442C60.9845 43.458 60.9845 43.486 60.9845 43.526C60.9845 43.566 60.9785 43.63 60.9665 43.718H59.4725C59.4685 43.69 59.4665 43.652 59.4665 43.604C59.4665 43.552 59.4765 43.498 59.4965 43.442C59.6285 43.422 59.7245 43.39 59.7845 43.346C59.8485 43.298 59.8805 43.22 59.8805 43.112V41.426C59.8165 41.418 59.7485 41.414 59.6765 41.414C59.6085 41.414 59.5405 41.416 59.4725 41.42C59.4805 41.304 59.4945 41.212 59.5145 41.144C59.8625 41.028 60.2325 40.954 60.6245 40.922V43.364C60.7245 43.408 60.8445 43.434 60.9845 43.442ZM63.441 42.44C63.441 41.636 63.223 41.234 62.787 41.234C62.383 41.234 62.181 41.572 62.181 42.248C62.181 42.28 62.181 42.312 62.181 42.344C62.213 43.072 62.435 43.436 62.847 43.436C63.243 43.436 63.441 43.104 63.441 42.44ZM62.817 40.892C63.241 40.892 63.583 41.018 63.843 41.27C64.103 41.522 64.233 41.878 64.233 42.338C64.233 42.798 64.101 43.156 63.837 43.412C63.573 43.664 63.229 43.79 62.805 43.79C62.381 43.79 62.039 43.664 61.779 43.412C61.523 43.16 61.395 42.804 61.395 42.344C61.395 41.884 61.527 41.528 61.791 41.276C62.055 41.02 62.397 40.892 62.817 40.892ZM67.5459 41.822V43.364C67.7179 43.412 67.8539 43.438 67.9539 43.442C67.9579 43.462 67.9599 43.496 67.9599 43.544C67.9599 43.588 67.9499 43.646 67.9299 43.718H66.4539C66.4499 43.69 66.4479 43.652 66.4479 43.604C66.4479 43.552 66.4579 43.498 66.4779 43.442C66.5979 43.422 66.6819 43.39 66.7299 43.346C66.7779 43.302 66.8019 43.224 66.8019 43.112V41.906C66.8019 41.734 66.7619 41.606 66.6819 41.522C66.6059 41.434 66.4999 41.39 66.3639 41.39C66.0879 41.39 65.8779 41.576 65.7339 41.948V43.364C65.8339 43.408 65.9539 43.434 66.0939 43.442C66.0939 43.458 66.0939 43.486 66.0939 43.526C66.0939 43.566 66.0879 43.63 66.0759 43.718H64.5819C64.5779 43.69 64.5759 43.652 64.5759 43.604C64.5759 43.552 64.5859 43.498 64.6059 43.442C64.7379 43.422 64.8339 43.39 64.8939 43.346C64.9579 43.298 64.9899 43.22 64.9899 43.112V41.426C64.9259 41.418 64.8579 41.414 64.7859 41.414C64.7179 41.414 64.6499 41.416 64.5819 41.42C64.5899 41.3 64.6039 41.212 64.6239 41.156C64.9559 41.036 65.3019 40.958 65.6619 40.922C65.6939 41.086 65.7159 41.272 65.7279 41.48C65.9279 41.088 66.2399 40.892 66.6639 40.892C66.9239 40.892 67.1359 40.974 67.2999 41.138C67.4639 41.298 67.5459 41.526 67.5459 41.822ZM70.8185 40.442C70.7305 40.53 70.6245 40.574 70.5005 40.574C70.3765 40.574 70.2705 40.53 70.1825 40.442C70.0945 40.354 70.0505 40.248 70.0505 40.124C70.0505 40 70.0945 39.894 70.1825 39.806C70.2705 39.718 70.3765 39.674 70.5005 39.674C70.6285 39.674 70.7345 39.718 70.8185 39.806C70.9065 39.89 70.9505 39.996 70.9505 40.124C70.9505 40.248 70.9065 40.354 70.8185 40.442ZM71.2385 43.442C71.2385 43.458 71.2385 43.486 71.2385 43.526C71.2385 43.566 71.2325 43.63 71.2205 43.718H69.7265C69.7225 43.69 69.7205 43.652 69.7205 43.604C69.7205 43.552 69.7305 43.498 69.7505 43.442C69.8825 43.422 69.9785 43.39 70.0385 43.346C70.1025 43.298 70.1345 43.22 70.1345 43.112V41.426C70.0705 41.418 70.0025 41.414 69.9305 41.414C69.8625 41.414 69.7945 41.416 69.7265 41.42C69.7345 41.304 69.7485 41.212 69.7685 41.144C70.1165 41.028 70.4865 40.954 70.8785 40.922V43.364C70.9785 43.408 71.0985 43.434 71.2385 43.442ZM72.5909 43.448C72.7389 43.448 72.8569 43.414 72.9449 43.346C73.0329 43.278 73.0769 43.194 73.0769 43.094C73.0769 42.994 73.0329 42.906 72.9449 42.83C72.8569 42.75 72.7509 42.678 72.6269 42.614C72.5029 42.55 72.3789 42.482 72.2549 42.41C72.1309 42.338 72.0249 42.244 71.9369 42.128C71.8489 42.008 71.8049 41.87 71.8049 41.714C71.8049 41.442 71.9009 41.238 72.0929 41.102C72.2889 40.962 72.5269 40.892 72.8069 40.892C73.0869 40.892 73.3529 40.934 73.6049 41.018C73.6049 41.066 73.6049 41.152 73.6049 41.276C73.6049 41.396 73.5929 41.558 73.5689 41.762C73.4649 41.762 73.3869 41.754 73.3349 41.738C73.3389 41.694 73.3409 41.654 73.3409 41.618C73.3409 41.346 73.1929 41.21 72.8969 41.21C72.7769 41.21 72.6769 41.242 72.5969 41.306C72.5209 41.37 72.4829 41.454 72.4829 41.558C72.4829 41.662 72.5269 41.752 72.6149 41.828C72.7069 41.9 72.8169 41.966 72.9449 42.026C73.0769 42.082 73.2069 42.146 73.3349 42.218C73.4669 42.286 73.5769 42.38 73.6649 42.5C73.7569 42.62 73.8029 42.76 73.8029 42.92C73.8029 43.18 73.6909 43.392 73.4669 43.556C73.2429 43.716 72.9649 43.796 72.6329 43.796C72.3009 43.796 72.0029 43.756 71.7389 43.676C71.7309 43.584 71.7269 43.472 71.7269 43.34C71.7269 43.204 71.7409 43.048 71.7689 42.872C71.7769 42.872 71.8589 42.878 72.0149 42.89C72.0149 42.914 72.0149 42.956 72.0149 43.016C72.0149 43.072 72.0289 43.136 72.0569 43.208C72.0889 43.28 72.1389 43.332 72.2069 43.364C72.3149 43.42 72.4429 43.448 72.5909 43.448ZM76.1724 45.122H76.0584C76.0064 44.966 75.9804 44.83 75.9804 44.714C75.9804 44.598 75.9844 44.508 75.9924 44.444H76.1604C76.3404 44.444 76.4784 44.412 76.5744 44.348C76.6704 44.284 76.7604 44.162 76.8444 43.982L76.8684 43.934L75.8964 41.588C75.8524 41.476 75.8024 41.396 75.7464 41.348C75.6904 41.3 75.5984 41.264 75.4704 41.24C75.4544 41.168 75.4464 41.112 75.4464 41.072C75.4464 41.028 75.4484 40.994 75.4524 40.97H76.9464C76.9624 41.018 76.9704 41.108 76.9704 41.24C76.7984 41.248 76.6764 41.264 76.6044 41.288L77.2104 43.22C77.2424 43.092 77.2784 42.976 77.3184 42.872L77.8164 41.624C77.8444 41.552 77.8584 41.494 77.8584 41.45C77.8584 41.406 77.8504 41.372 77.8344 41.348C77.7944 41.296 77.6984 41.26 77.5464 41.24C77.5304 41.168 77.5224 41.112 77.5224 41.072C77.5224 41.028 77.5244 40.994 77.5284 40.97H78.6984C78.7024 41.058 78.6844 41.148 78.6444 41.24C78.5484 41.256 78.4604 41.276 78.3804 41.3L77.0364 44.306C76.9164 44.574 76.7884 44.776 76.6524 44.912C76.5164 45.052 76.3564 45.122 76.1724 45.122ZM80.8843 42.44C80.8843 41.636 80.6663 41.234 80.2303 41.234C79.8263 41.234 79.6243 41.572 79.6243 42.248C79.6243 42.28 79.6243 42.312 79.6243 42.344C79.6563 43.072 79.8783 43.436 80.2903 43.436C80.6863 43.436 80.8843 43.104 80.8843 42.44ZM80.2603 40.892C80.6843 40.892 81.0263 41.018 81.2863 41.27C81.5463 41.522 81.6763 41.878 81.6763 42.338C81.6763 42.798 81.5443 43.156 81.2803 43.412C81.0163 43.664 80.6723 43.79 80.2483 43.79C79.8243 43.79 79.4823 43.664 79.2223 43.412C78.9663 43.16 78.8383 42.804 78.8383 42.344C78.8383 41.884 78.9703 41.528 79.2343 41.276C79.4983 41.02 79.8403 40.892 80.2603 40.892ZM84.8393 41.51V43.244C84.9673 43.264 85.0873 43.274 85.1993 43.274C85.2113 43.322 85.2173 43.368 85.2173 43.412C85.2173 43.456 85.2153 43.494 85.2113 43.526C84.9113 43.662 84.5673 43.736 84.1793 43.748C84.1433 43.564 84.1193 43.38 84.1073 43.196C83.8913 43.592 83.5793 43.79 83.1713 43.79C82.9113 43.79 82.6993 43.708 82.5353 43.544C82.3713 43.376 82.2893 43.144 82.2893 42.848V41.402C82.2293 41.398 82.1673 41.396 82.1033 41.396C82.0433 41.396 81.9893 41.396 81.9413 41.396C81.9493 41.276 81.9633 41.188 81.9833 41.132C82.3353 41 82.6833 40.924 83.0273 40.904V42.764C83.0273 42.932 83.0673 43.062 83.1473 43.154C83.2313 43.242 83.3393 43.286 83.4713 43.286C83.7393 43.286 83.9493 43.094 84.1013 42.71V41.66C84.1013 41.42 84.0173 41.264 83.8493 41.192C83.8653 41.116 83.8853 41.06 83.9093 41.024C84.1293 40.94 84.3653 40.898 84.6173 40.898C84.6973 40.898 84.7793 40.902 84.8633 40.91C84.8473 41.054 84.8393 41.254 84.8393 41.51ZM86.0134 43.106V41.426C85.9494 41.418 85.8814 41.414 85.8094 41.414C85.7414 41.414 85.6734 41.416 85.6054 41.42C85.6134 41.3 85.6274 41.212 85.6474 41.156C85.9794 41.036 86.3254 40.958 86.6854 40.922C86.7254 41.17 86.7494 41.444 86.7574 41.744C86.8574 41.492 86.9994 41.288 87.1834 41.132C87.3714 40.972 87.5794 40.892 87.8074 40.892C87.8274 40.964 87.8374 41.056 87.8374 41.168C87.8374 41.276 87.8174 41.416 87.7774 41.588C87.1694 41.588 86.8294 41.82 86.7574 42.284V43.328C86.9254 43.392 87.1114 43.43 87.3154 43.442C87.3154 43.462 87.3154 43.496 87.3154 43.544C87.3154 43.588 87.3074 43.646 87.2914 43.718H85.6054C85.6014 43.69 85.5994 43.652 85.5994 43.604C85.5994 43.552 85.6094 43.498 85.6294 43.442C85.7614 43.422 85.8574 43.39 85.9174 43.346C85.9814 43.298 86.0134 43.218 86.0134 43.106ZM89.8688 43.106V41.426C89.8048 41.418 89.7368 41.414 89.6648 41.414C89.5968 41.414 89.5288 41.416 89.4608 41.42C89.4688 41.3 89.4828 41.212 89.5028 41.156C89.8348 41.036 90.1808 40.958 90.5408 40.922C90.5808 41.17 90.6048 41.444 90.6128 41.744C90.7128 41.492 90.8548 41.288 91.0388 41.132C91.2268 40.972 91.4348 40.892 91.6628 40.892C91.6828 40.964 91.6928 41.056 91.6928 41.168C91.6928 41.276 91.6728 41.416 91.6328 41.588C91.0248 41.588 90.6848 41.82 90.6128 42.284V43.328C90.7808 43.392 90.9668 43.43 91.1708 43.442C91.1708 43.462 91.1708 43.496 91.1708 43.544C91.1708 43.588 91.1628 43.646 91.1468 43.718H89.4608C89.4568 43.69 89.4548 43.652 89.4548 43.604C89.4548 43.552 89.4648 43.498 89.4848 43.442C89.6168 43.422 89.7128 43.39 89.7728 43.346C89.8368 43.298 89.8688 43.218 89.8688 43.106ZM92.9083 40.442C92.8203 40.53 92.7143 40.574 92.5903 40.574C92.4663 40.574 92.3603 40.53 92.2723 40.442C92.1843 40.354 92.1403 40.248 92.1403 40.124C92.1403 40 92.1843 39.894 92.2723 39.806C92.3603 39.718 92.4663 39.674 92.5903 39.674C92.7183 39.674 92.8243 39.718 92.9083 39.806C92.9963 39.89 93.0403 39.996 93.0403 40.124C93.0403 40.248 92.9963 40.354 92.9083 40.442ZM93.3283 43.442C93.3283 43.458 93.3283 43.486 93.3283 43.526C93.3283 43.566 93.3223 43.63 93.3103 43.718H91.8163C91.8123 43.69 91.8103 43.652 91.8103 43.604C91.8103 43.552 91.8203 43.498 91.8403 43.442C91.9723 43.422 92.0683 43.39 92.1283 43.346C92.1923 43.298 92.2243 43.22 92.2243 43.112V41.426C92.1603 41.418 92.0923 41.414 92.0203 41.414C91.9523 41.414 91.8843 41.416 91.8163 41.42C91.8243 41.304 91.8383 41.212 91.8583 41.144C92.2063 41.028 92.5763 40.954 92.9683 40.922V43.364C93.0683 43.408 93.1883 43.434 93.3283 43.442ZM94.6447 41.768C94.6447 42.276 94.7967 42.53 95.1007 42.53C95.2287 42.53 95.3287 42.478 95.4007 42.374C95.4727 42.27 95.5087 42.114 95.5087 41.906C95.5087 41.406 95.3567 41.156 95.0527 41.156C94.7807 41.156 94.6447 41.36 94.6447 41.768ZM95.7907 43.802H94.6207C94.5407 43.802 94.4687 43.796 94.4047 43.784C94.2927 43.896 94.2367 44.024 94.2367 44.168C94.2367 44.312 94.3087 44.424 94.4527 44.504C94.5967 44.588 94.8127 44.63 95.1007 44.63C95.3887 44.63 95.6267 44.572 95.8147 44.456C96.0027 44.34 96.0967 44.21 96.0967 44.066C96.0967 43.89 95.9947 43.802 95.7907 43.802ZM94.8547 45.2C94.5147 45.2 94.2387 45.126 94.0267 44.978C93.8147 44.834 93.7087 44.628 93.7087 44.36C93.7087 44.092 93.8547 43.874 94.1467 43.706C93.9587 43.598 93.8647 43.432 93.8647 43.208C93.8647 43.076 93.9047 42.958 93.9847 42.854C94.0687 42.75 94.1787 42.67 94.3147 42.614C94.0067 42.43 93.8527 42.182 93.8527 41.87C93.8527 41.558 93.9687 41.318 94.2007 41.15C94.4327 40.978 94.7147 40.892 95.0467 40.892C95.3787 40.892 95.6507 40.958 95.8627 41.09C96.0867 40.91 96.3787 40.82 96.7387 40.82C96.7427 40.844 96.7447 40.886 96.7447 40.946C96.7447 41.002 96.7347 41.098 96.7147 41.234L96.1087 41.3C96.2287 41.456 96.2887 41.636 96.2887 41.84C96.2887 42.132 96.1747 42.366 95.9467 42.542C95.7187 42.714 95.4287 42.8 95.0767 42.8C94.8967 42.8 94.7227 42.774 94.5547 42.722C94.4147 42.794 94.3447 42.886 94.3447 42.998C94.3447 43.066 94.3707 43.122 94.4227 43.166C94.4747 43.206 94.5487 43.226 94.6447 43.226L95.8207 43.22C96.3327 43.22 96.5887 43.424 96.5887 43.832C96.5847 44.18 96.4147 44.494 96.0787 44.774C95.7427 45.058 95.3347 45.2 94.8547 45.2ZM99.8194 41.822V43.364C99.9914 43.412 100.127 43.438 100.227 43.442C100.231 43.462 100.233 43.496 100.233 43.544C100.233 43.588 100.223 43.646 100.203 43.718H98.7274C98.7234 43.69 98.7214 43.652 98.7214 43.604C98.7214 43.552 98.7314 43.498 98.7514 43.442C98.8714 43.422 98.9554 43.39 99.0034 43.346C99.0514 43.302 99.0754 43.224 99.0754 43.112V41.906C99.0754 41.734 99.0354 41.606 98.9554 41.522C98.8794 41.434 98.7734 41.39 98.6374 41.39C98.3614 41.39 98.1514 41.576 98.0074 41.948V43.364C98.1074 43.408 98.2274 43.434 98.3674 43.442C98.3674 43.458 98.3674 43.486 98.3674 43.526C98.3674 43.566 98.3614 43.63 98.3494 43.718H96.8554C96.8514 43.69 96.8494 43.652 96.8494 43.604C96.8494 43.552 96.8594 43.498 96.8794 43.442C97.0114 43.422 97.1074 43.39 97.1674 43.346C97.2314 43.298 97.2634 43.22 97.2634 43.112V39.92C97.1994 39.912 97.1314 39.908 97.0594 39.908C96.9914 39.908 96.9234 39.91 96.8554 39.914C96.8634 39.79 96.8774 39.7 96.8974 39.644C97.2494 39.52 97.6194 39.446 98.0074 39.422V41.462C98.2114 41.082 98.5214 40.892 98.9374 40.892C99.1974 40.892 99.4094 40.974 99.5734 41.138C99.7374 41.298 99.8194 41.526 99.8194 41.822ZM101.657 43.79C101.429 43.79 101.245 43.722 101.105 43.586C100.965 43.446 100.895 43.24 100.895 42.968V41.366C100.783 41.35 100.655 41.342 100.511 41.342C100.511 41.258 100.515 41.18 100.523 41.108C100.623 41.068 100.745 41.03 100.889 40.994L101.483 40.124L101.633 40.166V40.988C101.913 40.98 102.167 40.962 102.395 40.934C102.395 41.086 102.377 41.222 102.341 41.342H101.633L101.639 42.932C101.639 43.168 101.731 43.286 101.915 43.286C102.067 43.286 102.221 43.226 102.377 43.106L102.503 43.268C102.259 43.616 101.977 43.79 101.657 43.79Z" fill="#707070"/>
<path d="M106.098 6.27565L104.374 9.80467L111.001 17.1946L120.921 17.8435L122.646 14.3145L112.725 13.6656L106.098 6.27565ZM118.759 1.31585L103.172 0.293527L113.586 11.9029L126.339 12.739L123.36 18.8346L125.725 19.9833L129.173 12.9252L118.759 1.31585Z" fill="#707070"/>
</g>
<defs>
<clipPath id="clip0_1_735">
<rect width="171" height="48" fill="white"/>
</clipPath>
</defs>
</svg>
