<svg width="139" height="87" viewBox="0 0 139 87" fill="none" xmlns="http://www.w3.org/2000/svg">
<path d="M52.68 25.38V34.9C53.0667 35.06 53.5267 35.14 54.06 35.14C54.06 35.1933 54.06 35.2867 54.06 35.42C54.06 35.5533 54.04 35.7667 54 36.06H48.8C48.8 35.98 48.8 35.86 48.8 35.7C48.8 35.5267 48.8333 35.34 48.9 35.14C49.34 35.0733 49.66 34.9667 49.86 34.82C50.06 34.6733 50.16 34.4133 50.16 34.04V24.54C49.7733 24.3667 49.3 24.28 48.74 24.28C48.74 23.88 48.7733 23.5733 48.84 23.36H54.02C54.0333 23.4533 54.04 23.5867 54.04 23.76C54.04 23.92 54.0067 24.0933 53.94 24.28C53.5133 24.3333 53.1933 24.44 52.98 24.6C52.78 24.7467 52.68 25.0067 52.68 25.38ZM65.2559 29.74V34.88C65.8293 35.04 66.2826 35.1267 66.6159 35.14C66.6293 35.2067 66.6359 35.32 66.6359 35.48C66.6359 35.6267 66.6026 35.82 66.5359 36.06H61.6159C61.6026 35.9667 61.5959 35.84 61.5959 35.68C61.5959 35.5067 61.6293 35.3267 61.6959 35.14C62.0959 35.0733 62.3759 34.9667 62.5359 34.82C62.6959 34.6733 62.7759 34.4133 62.7759 34.04V30.02C62.7759 29.4467 62.6426 29.02 62.3759 28.74C62.1226 28.4467 61.7693 28.3 61.3159 28.3C60.3959 28.3 59.6959 28.92 59.2159 30.16V34.88C59.5493 35.0267 59.9493 35.1133 60.4159 35.14C60.4159 35.1933 60.4159 35.2867 60.4159 35.42C60.4159 35.5533 60.3959 35.7667 60.3559 36.06H55.3759C55.3626 35.9667 55.3559 35.84 55.3559 35.68C55.3559 35.5067 55.3893 35.3267 55.4559 35.14C55.8959 35.0733 56.2159 34.9667 56.4159 34.82C56.6293 34.66 56.7359 34.4 56.7359 34.04V28.42C56.5226 28.3933 56.2959 28.38 56.0559 28.38C55.8293 28.38 55.6026 28.3867 55.3759 28.4C55.4026 28 55.4493 27.7067 55.5159 27.52C56.6226 27.12 57.7759 26.86 58.9759 26.74C59.0826 27.2867 59.1559 27.9067 59.1959 28.6C59.8626 27.2933 60.9026 26.64 62.3159 26.64C63.1826 26.64 63.8893 26.9133 64.4359 27.46C64.9826 27.9933 65.2559 28.7533 65.2559 29.74ZM72.7644 27.98C71.911 27.98 71.2777 28.24 70.8644 28.76C70.451 29.2667 70.2444 30.1467 70.2444 31.4C70.2444 33.64 70.951 34.76 72.3644 34.76C72.911 34.76 73.3977 34.6133 73.8244 34.32V28.08C73.4644 28.0133 73.111 27.98 72.7644 27.98ZM77.8844 35.18C77.2444 35.94 76.531 36.32 75.7444 36.32C74.9577 36.32 74.3777 35.9933 74.0044 35.34C73.2444 35.98 72.3777 36.3 71.4044 36.3C70.4444 36.3 69.571 35.9 68.7844 35.1C68.011 34.3 67.6244 33.14 67.6244 31.62C67.6244 30.1 68.1577 28.8933 69.2244 28C70.291 27.0933 71.651 26.64 73.3044 26.64C73.531 26.64 73.7044 26.6467 73.8244 26.66V23.36C73.691 23.3467 73.511 23.34 73.2844 23.34C73.0577 23.34 72.7844 23.3467 72.4644 23.36C72.491 22.9467 72.5377 22.6467 72.6044 22.46C73.7644 22.0467 74.9977 21.7933 76.3044 21.7V33.76C76.3044 34.44 76.5044 34.78 76.9044 34.78C76.9977 34.78 77.2444 34.74 77.6444 34.66L77.8844 35.18ZM80.2906 34.02V28.42C80.0773 28.3933 79.8506 28.38 79.6106 28.38C79.384 28.38 79.1573 28.3867 78.9306 28.4C78.9573 28 79.004 27.7067 79.0706 27.52C80.1773 27.12 81.3306 26.86 82.5306 26.74C82.664 27.5667 82.744 28.48 82.7706 29.48C83.104 28.64 83.5773 27.96 84.1906 27.44C84.8173 26.9067 85.5106 26.64 86.2706 26.64C86.3373 26.88 86.3706 27.1867 86.3706 27.56C86.3706 27.92 86.304 28.3867 86.1706 28.96C84.144 28.96 83.0106 29.7333 82.7706 31.28V34.76C83.3306 34.9733 83.9506 35.1 84.6306 35.14C84.6306 35.2067 84.6306 35.32 84.6306 35.48C84.6306 35.6267 84.604 35.82 84.5506 36.06H78.9306C78.9173 35.9667 78.9106 35.84 78.9106 35.68C78.9106 35.5067 78.944 35.3267 79.0106 35.14C79.4506 35.0733 79.7706 34.9667 79.9706 34.82C80.184 34.66 80.2906 34.3933 80.2906 34.02ZM89.5022 33.56C89.5022 33.92 89.6022 34.2067 89.8022 34.42C90.0155 34.6333 90.3355 34.74 90.7622 34.74C91.2022 34.74 91.5955 34.5467 91.9422 34.16V31.56L91.0622 31.8C90.0222 32.0933 89.5022 32.68 89.5022 33.56ZM94.0022 36.32C93.5489 36.32 93.1355 36.2267 92.7622 36.04C92.4022 35.84 92.1555 35.56 92.0222 35.2C91.3822 35.9467 90.6155 36.32 89.7222 36.32C88.8422 36.32 88.1489 36.08 87.6422 35.6C87.1355 35.12 86.8822 34.5067 86.8822 33.76C86.8822 33.0133 87.1222 32.42 87.6022 31.98C88.0822 31.54 88.8089 31.22 89.7822 31.02L91.9422 30.58V29.86C91.9422 29.3533 91.8155 28.9867 91.5622 28.76C91.3222 28.52 90.8755 28.4 90.2222 28.4C89.5822 28.4 88.8422 28.5467 88.0022 28.84L87.5022 28.1C88.6222 27.1267 89.9155 26.64 91.3822 26.64C92.3822 26.64 93.1355 26.9133 93.6422 27.46C94.1489 28.0067 94.4022 28.78 94.4022 29.78V33.76C94.4022 34.44 94.6155 34.78 95.0422 34.78C95.1089 34.78 95.3555 34.74 95.7822 34.66L95.9822 35.18C95.3689 35.94 94.7089 36.32 94.0022 36.32ZM100.285 25.14C99.9921 25.4333 99.6388 25.58 99.2255 25.58C98.8121 25.58 98.4588 25.4333 98.1655 25.14C97.8721 24.8467 97.7255 24.4933 97.7255 24.08C97.7255 23.6667 97.8721 23.3133 98.1655 23.02C98.4588 22.7267 98.8121 22.58 99.2255 22.58C99.6521 22.58 100.005 22.7267 100.285 23.02C100.579 23.3 100.725 23.6533 100.725 24.08C100.725 24.4933 100.579 24.8467 100.285 25.14ZM98.0055 35.9V28.42C97.7921 28.3933 97.5655 28.38 97.3255 28.38C97.0988 28.38 96.8721 28.3867 96.6455 28.4C96.6721 28.0133 96.7188 27.7067 96.7855 27.48C97.9455 27.0933 99.1788 26.8467 100.485 26.74V35.58C100.485 38.1267 99.1388 39.8733 96.4455 40.82L95.9255 40.06C96.6855 39.5667 97.2188 39.02 97.5255 38.42C97.8455 37.82 98.0055 36.98 98.0055 35.9ZM105.264 33.56C105.264 33.92 105.364 34.2067 105.564 34.42C105.777 34.6333 106.097 34.74 106.524 34.74C106.964 34.74 107.357 34.5467 107.704 34.16V31.56L106.824 31.8C105.784 32.0933 105.264 32.68 105.264 33.56ZM109.764 36.32C109.311 36.32 108.897 36.2267 108.524 36.04C108.164 35.84 107.917 35.56 107.784 35.2C107.144 35.9467 106.377 36.32 105.484 36.32C104.604 36.32 103.911 36.08 103.404 35.6C102.897 35.12 102.644 34.5067 102.644 33.76C102.644 33.0133 102.884 32.42 103.364 31.98C103.844 31.54 104.571 31.22 105.544 31.02L107.704 30.58V29.86C107.704 29.3533 107.577 28.9867 107.324 28.76C107.084 28.52 106.637 28.4 105.984 28.4C105.344 28.4 104.604 28.5467 103.764 28.84L103.264 28.1C104.384 27.1267 105.677 26.64 107.144 26.64C108.144 26.64 108.897 26.9133 109.404 27.46C109.911 28.0067 110.164 28.78 110.164 29.78V33.76C110.164 34.44 110.377 34.78 110.804 34.78C110.871 34.78 111.117 34.74 111.544 34.66L111.744 35.18C111.131 35.94 110.471 36.32 109.764 36.32ZM57.54 52.56C57.54 53.6933 57.1 54.6 56.22 55.28C55.34 55.96 54.3267 56.3 53.18 56.3C52.0333 56.3 50.7267 56.0667 49.26 55.6C49.2467 55.3467 49.24 54.94 49.24 54.38C49.24 53.82 49.3 53.0133 49.42 51.96C49.78 51.96 50.12 51.9933 50.44 52.06C50.44 52.1 50.44 52.14 50.44 52.18C50.44 54.1267 51.3467 55.1 53.16 55.1C53.7867 55.1 54.2933 54.9467 54.68 54.64C55.0667 54.32 55.26 53.8867 55.26 53.34C55.26 52.7933 55.0533 52.3133 54.64 51.9C54.24 51.4867 53.7467 51.14 53.16 50.86C52.5867 50.5667 52.0067 50.26 51.42 49.94C50.8333 49.6067 50.3333 49.1533 49.92 48.58C49.52 48.0067 49.32 47.3267 49.32 46.54C49.32 45.4733 49.7133 44.64 50.5 44.04C51.2867 43.4267 52.2533 43.12 53.4 43.12C54.5467 43.12 55.7333 43.3133 56.96 43.7C56.96 44.6333 56.8733 45.66 56.7 46.78C56.42 46.78 56.1467 46.76 55.88 46.72C55.6533 45.0933 54.8533 44.28 53.48 44.28C52.88 44.28 52.3933 44.4267 52.02 44.72C51.6467 45.0133 51.46 45.42 51.46 45.94C51.46 46.4467 51.6667 46.9 52.08 47.3C52.5067 47.7 53.0133 48.04 53.6 48.32C54.2 48.6 54.7933 48.9 55.38 49.22C55.98 49.5267 56.4867 49.9667 56.9 50.54C57.3267 51.1 57.54 51.7733 57.54 52.56ZM62.5706 45.14C62.2773 45.4333 61.924 45.58 61.5106 45.58C61.0973 45.58 60.744 45.4333 60.4506 45.14C60.1573 44.8467 60.0106 44.4933 60.0106 44.08C60.0106 43.6667 60.1573 43.3133 60.4506 43.02C60.744 42.7267 61.0973 42.58 61.5106 42.58C61.9373 42.58 62.2906 42.7267 62.5706 43.02C62.864 43.3 63.0106 43.6533 63.0106 44.08C63.0106 44.4933 62.864 44.8467 62.5706 45.14ZM63.9706 55.14C63.9706 55.1933 63.9706 55.2867 63.9706 55.42C63.9706 55.5533 63.9506 55.7667 63.9106 56.06H58.9306C58.9173 55.9667 58.9106 55.84 58.9106 55.68C58.9106 55.5067 58.944 55.3267 59.0106 55.14C59.4506 55.0733 59.7706 54.9667 59.9706 54.82C60.184 54.66 60.2906 54.4 60.2906 54.04V48.42C60.0773 48.3933 59.8506 48.38 59.6106 48.38C59.384 48.38 59.1573 48.3867 58.9306 48.4C58.9573 48.0133 59.004 47.7067 59.0706 47.48C60.2306 47.0933 61.464 46.8467 62.7706 46.74V54.88C63.104 55.0267 63.504 55.1133 63.9706 55.14ZM66.6188 54.02V48.42C66.4054 48.3933 66.1788 48.38 65.9388 48.38C65.7121 48.38 65.4854 48.3867 65.2588 48.4C65.2854 48 65.3321 47.7067 65.3988 47.52C66.5054 47.12 67.6588 46.86 68.8588 46.74C68.9921 47.5667 69.0721 48.48 69.0988 49.48C69.4321 48.64 69.9054 47.96 70.5188 47.44C71.1454 46.9067 71.8388 46.64 72.5988 46.64C72.6654 46.88 72.6988 47.1867 72.6988 47.56C72.6988 47.92 72.6321 48.3867 72.4988 48.96C70.4721 48.96 69.3388 49.7333 69.0988 51.28V54.76C69.6588 54.9733 70.2788 55.1 70.9588 55.14C70.9588 55.2067 70.9588 55.32 70.9588 55.48C70.9588 55.6267 70.9321 55.82 70.8788 56.06H65.2588C65.2454 55.9667 65.2388 55.84 65.2388 55.68C65.2388 55.5067 65.2721 55.3267 65.3388 55.14C65.7788 55.0733 66.0988 54.9667 66.2988 54.82C66.5121 54.66 66.6188 54.3933 66.6188 54.02ZM76.7503 45.14C76.457 45.4333 76.1036 45.58 75.6903 45.58C75.277 45.58 74.9236 45.4333 74.6303 45.14C74.337 44.8467 74.1903 44.4933 74.1903 44.08C74.1903 43.6667 74.337 43.3133 74.6303 43.02C74.9236 42.7267 75.277 42.58 75.6903 42.58C76.117 42.58 76.4703 42.7267 76.7503 43.02C77.0436 43.3 77.1903 43.6533 77.1903 44.08C77.1903 44.4933 77.0436 44.8467 76.7503 45.14ZM78.1503 55.14C78.1503 55.1933 78.1503 55.2867 78.1503 55.42C78.1503 55.5533 78.1303 55.7667 78.0903 56.06H73.1103C73.097 55.9667 73.0903 55.84 73.0903 55.68C73.0903 55.5067 73.1236 55.3267 73.1903 55.14C73.6303 55.0733 73.9503 54.9667 74.1503 54.82C74.3636 54.66 74.4703 54.4 74.4703 54.04V48.42C74.257 48.3933 74.0303 48.38 73.7903 48.38C73.5636 48.38 73.337 48.3867 73.1103 48.4C73.137 48.0133 73.1836 47.7067 73.2503 47.48C74.4103 47.0933 75.6436 46.8467 76.9503 46.74V54.88C77.2836 55.0267 77.6836 55.1133 78.1503 55.14ZM83.1984 54.82C83.6118 55.0067 84.1118 55.1 84.6984 55.1C85.2851 55.1 85.8051 54.7867 86.2584 54.16C86.7251 53.5333 86.9584 52.6133 86.9584 51.4C86.9584 50.1733 86.7651 49.3133 86.3784 48.82C86.0051 48.3133 85.5784 48.06 85.0984 48.06C84.6318 48.06 84.2251 48.2333 83.8784 48.58C83.5451 48.9267 83.3184 49.4 83.1984 50V54.82ZM80.7184 58.7V48.42C80.5051 48.3933 80.2784 48.38 80.0384 48.38C79.7984 48.38 79.5718 48.3867 79.3584 48.4C79.3851 48.0533 79.4384 47.76 79.5184 47.52C80.6118 47.12 81.7384 46.86 82.8984 46.74C83.0184 47.2867 83.0984 47.8133 83.1384 48.32C83.6718 47.2 84.5051 46.64 85.6384 46.64C86.7718 46.64 87.7184 47.06 88.4784 47.9C89.2384 48.7267 89.6184 49.8867 89.6184 51.38C89.6184 52.86 89.0984 54.0533 88.0584 54.96C87.0318 55.8533 85.8051 56.3 84.3784 56.3C83.9651 56.3 83.5718 56.24 83.1984 56.12V59.36C83.7584 59.6267 84.3651 59.7733 85.0184 59.8C85.0318 59.8933 85.0384 60.02 85.0384 60.18C85.0384 60.34 85.0118 60.5267 84.9584 60.74H79.3384C79.3384 60.66 79.3384 60.5333 79.3384 60.36C79.3384 60.1867 79.3718 60 79.4384 59.8C79.8784 59.7333 80.1984 59.62 80.3984 59.46C80.6118 59.3133 80.7184 59.06 80.7184 58.7ZM100.186 48.7V54.48C100.612 54.5467 101.012 54.58 101.386 54.58C101.426 54.74 101.446 54.8933 101.446 55.04C101.446 55.1867 101.439 55.3133 101.426 55.42C100.426 55.8733 99.279 56.12 97.9856 56.16C97.8656 55.5467 97.7856 54.9333 97.7456 54.32C97.0256 55.64 95.9856 56.3 94.6256 56.3C93.759 56.3 93.0523 56.0267 92.5056 55.48C91.959 54.92 91.6856 54.1467 91.6856 53.16V48.34C91.4856 48.3267 91.279 48.32 91.0656 48.32C90.8656 48.32 90.6856 48.32 90.5256 48.32C90.5523 47.92 90.599 47.6267 90.6656 47.44C91.839 47 92.999 46.7467 94.1456 46.68V52.88C94.1456 53.44 94.279 53.8733 94.5456 54.18C94.8256 54.4733 95.1856 54.62 95.6256 54.62C96.519 54.62 97.219 53.98 97.7256 52.7V49.2C97.7256 48.4 97.4456 47.88 96.8856 47.64C96.939 47.3867 97.0056 47.2 97.0856 47.08C97.819 46.8 98.6056 46.66 99.4456 46.66C99.7123 46.66 99.9856 46.6733 100.266 46.7C100.212 47.18 100.186 47.8467 100.186 48.7ZM104.099 54.02V48.42C103.886 48.3933 103.659 48.38 103.419 48.38C103.193 48.38 102.966 48.3867 102.739 48.4C102.766 48 102.813 47.7067 102.879 47.52C103.986 47.12 105.139 46.86 106.339 46.74C106.473 47.5667 106.553 48.48 106.579 49.48C106.913 48.64 107.386 47.96 107.999 47.44C108.626 46.9067 109.319 46.64 110.079 46.64C110.146 46.88 110.179 47.1867 110.179 47.56C110.179 47.92 110.113 48.3867 109.979 48.96C107.953 48.96 106.819 49.7333 106.579 51.28V54.76C107.139 54.9733 107.759 55.1 108.439 55.14C108.439 55.2067 108.439 55.32 108.439 55.48C108.439 55.6267 108.413 55.82 108.359 56.06H102.739C102.726 55.9667 102.719 55.84 102.719 55.68C102.719 55.5067 102.753 55.3267 102.819 55.14C103.259 55.0733 103.579 54.9667 103.779 54.82C103.993 54.66 104.099 54.3933 104.099 54.02ZM113.311 53.56C113.311 53.92 113.411 54.2067 113.611 54.42C113.824 54.6333 114.144 54.74 114.571 54.74C115.011 54.74 115.404 54.5467 115.751 54.16V51.56L114.871 51.8C113.831 52.0933 113.311 52.68 113.311 53.56ZM117.811 56.32C117.357 56.32 116.944 56.2267 116.571 56.04C116.211 55.84 115.964 55.56 115.831 55.2C115.191 55.9467 114.424 56.32 113.531 56.32C112.651 56.32 111.957 56.08 111.451 55.6C110.944 55.12 110.691 54.5067 110.691 53.76C110.691 53.0133 110.931 52.42 111.411 51.98C111.891 51.54 112.617 51.22 113.591 51.02L115.751 50.58V49.86C115.751 49.3533 115.624 48.9867 115.371 48.76C115.131 48.52 114.684 48.4 114.031 48.4C113.391 48.4 112.651 48.5467 111.811 48.84L111.311 48.1C112.431 47.1267 113.724 46.64 115.191 46.64C116.191 46.64 116.944 46.9133 117.451 47.46C117.957 48.0067 118.211 48.78 118.211 49.78V53.76C118.211 54.44 118.424 54.78 118.851 54.78C118.917 54.78 119.164 54.74 119.591 54.66L119.791 55.18C119.177 55.94 118.517 56.32 117.811 56.32ZM136.394 49.74V54.88C136.954 55.04 137.401 55.1267 137.734 55.14C137.747 55.2067 137.754 55.32 137.754 55.48C137.754 55.6267 137.721 55.82 137.654 56.06H132.754C132.741 55.9667 132.734 55.8467 132.734 55.7C132.734 55.5533 132.761 55.3667 132.814 55.14C133.214 55.0733 133.494 54.9667 133.654 54.82C133.827 54.6733 133.914 54.4133 133.914 54.04V50.02C133.914 49.4467 133.781 49.02 133.514 48.74C133.261 48.4467 132.907 48.3 132.454 48.3C131.521 48.3 130.814 48.94 130.334 50.22V54.88C130.667 55.0267 131.074 55.1133 131.554 55.14C131.554 55.2067 131.554 55.32 131.554 55.48C131.554 55.6267 131.527 55.82 131.474 56.06H126.694C126.681 55.9667 126.674 55.84 126.674 55.68C126.674 55.5067 126.707 55.3267 126.774 55.14C127.174 55.0733 127.454 54.9667 127.614 54.82C127.774 54.6733 127.854 54.4133 127.854 54.04V50.02C127.854 49.4467 127.721 49.02 127.454 48.74C127.201 48.4467 126.847 48.3 126.394 48.3C125.474 48.3 124.774 48.92 124.294 50.16V54.88C124.627 55.0267 125.027 55.1133 125.494 55.14C125.494 55.1933 125.494 55.2867 125.494 55.42C125.494 55.5533 125.474 55.7667 125.434 56.06H120.454C120.441 55.9667 120.434 55.84 120.434 55.68C120.434 55.5067 120.467 55.3267 120.534 55.14C120.974 55.0733 121.294 54.9667 121.494 54.82C121.707 54.66 121.814 54.4 121.814 54.04V48.42C121.601 48.3933 121.374 48.38 121.134 48.38C120.907 48.38 120.681 48.3867 120.454 48.4C120.481 48 120.527 47.7067 120.594 47.52C121.701 47.12 122.854 46.86 124.054 46.74C124.161 47.2867 124.234 47.9067 124.274 48.6C124.941 47.2933 125.981 46.64 127.394 46.64C128.101 46.64 128.701 46.8267 129.194 47.2C129.701 47.56 130.041 48.08 130.214 48.76C130.534 48.0667 130.974 47.54 131.534 47.18C132.107 46.82 132.787 46.64 133.574 46.64C134.361 46.64 135.027 46.9133 135.574 47.46C136.121 47.9933 136.394 48.7533 136.394 49.74Z" fill="#31ADE7"/>
<path d="M12.87 28.045V54.225C13.9333 54.665 15.1983 54.885 16.665 54.885C16.665 55.0317 16.665 55.2883 16.665 55.655C16.665 56.0217 16.61 56.6083 16.5 57.415H2.2C2.2 57.195 2.2 56.865 2.2 56.425C2.2 55.9483 2.29167 55.435 2.475 54.885C3.685 54.7017 4.565 54.4083 5.115 54.005C5.665 53.6017 5.94 52.8867 5.94 51.86V25.735C4.87667 25.2583 3.575 25.02 2.035 25.02C2.035 23.92 2.12667 23.0767 2.31 22.49H16.555C16.5917 22.7467 16.61 23.1133 16.61 23.59C16.61 24.03 16.5183 24.5067 16.335 25.02C15.1617 25.1667 14.2817 25.46 13.695 25.9C13.145 26.3033 12.87 27.0183 12.87 28.045ZM45.0338 47.79C45.0338 50.9067 43.8238 53.4 41.4038 55.27C38.9838 57.14 36.1972 58.075 33.0438 58.075C29.8905 58.075 26.2972 57.4333 22.2638 56.15C22.2272 55.4533 22.2088 54.335 22.2088 52.795C22.2088 51.255 22.3738 49.0367 22.7038 46.14C23.6938 46.14 24.6288 46.2317 25.5088 46.415C25.5088 46.525 25.5088 46.635 25.5088 46.745C25.5088 52.0983 28.0022 54.775 32.9888 54.775C34.7122 54.775 36.1055 54.3533 37.1688 53.51C38.2322 52.63 38.7638 51.4383 38.7638 49.935C38.7638 48.4317 38.1955 47.1117 37.0588 45.975C35.9588 44.8383 34.6022 43.885 32.9888 43.115C31.4122 42.3083 29.8172 41.465 28.2038 40.585C26.5905 39.6683 25.2155 38.4217 24.0788 36.845C22.9788 35.2683 22.4288 33.3983 22.4288 31.235C22.4288 28.3017 23.5105 26.01 25.6738 24.36C27.8372 22.6733 30.4955 21.83 33.6488 21.83C36.8022 21.83 40.0655 22.3617 43.4388 23.425C43.4388 25.9917 43.2005 28.815 42.7238 31.895C41.9538 31.895 41.2022 31.84 40.4688 31.73C39.8455 27.2567 37.6455 25.02 33.8688 25.02C32.2188 25.02 30.8805 25.4233 29.8538 26.23C28.8272 27.0367 28.3138 28.155 28.3138 29.585C28.3138 30.9783 28.8822 32.225 30.0188 33.325C31.1922 34.425 32.5855 35.36 34.1988 36.13C35.8488 36.9 37.4805 37.725 39.0938 38.605C40.7438 39.4483 42.1372 40.6583 43.2738 42.235C44.4472 43.775 45.0338 45.6267 45.0338 47.79Z" fill="#31ADE7"/>
</svg>
