<svg width="136" height="40" viewBox="0 0 136 40" fill="none" xmlns="http://www.w3.org/2000/svg">
<path d="M50.6451 3.68V13.2C51.0318 13.36 51.4918 13.44 52.0251 13.44C52.0251 13.4933 52.0251 13.5867 52.0251 13.72C52.0251 13.8533 52.0051 14.0667 51.9651 14.36H46.7651C46.7651 14.28 46.7651 14.16 46.7651 14C46.7651 13.8267 46.7984 13.64 46.8651 13.44C47.3051 13.3733 47.6251 13.2667 47.8251 13.12C48.0251 12.9733 48.1251 12.7133 48.1251 12.34V2.84C47.7384 2.6667 47.2651 2.58 46.7051 2.58C46.7051 2.18 46.7384 1.8733 46.8051 1.66H51.9851C51.9984 1.7533 52.0051 1.8867 52.0051 2.06C52.0051 2.22 51.9718 2.3933 51.9051 2.58C51.4784 2.6333 51.1584 2.74 50.9451 2.9C50.7451 3.0467 50.6451 3.3067 50.6451 3.68ZM63.221 8.04V13.18C63.7944 13.34 64.2477 13.4267 64.581 13.44C64.5944 13.5067 64.601 13.62 64.601 13.78C64.601 13.9267 64.5677 14.12 64.501 14.36H59.581C59.5677 14.2667 59.561 14.14 59.561 13.98C59.561 13.8067 59.5944 13.6267 59.661 13.44C60.061 13.3733 60.341 13.2667 60.501 13.12C60.661 12.9733 60.741 12.7133 60.741 12.34V8.32C60.741 7.7467 60.6077 7.32 60.341 7.04C60.0877 6.7467 59.7344 6.6 59.281 6.6C58.361 6.6 57.661 7.22 57.181 8.46V13.18C57.5144 13.3267 57.9144 13.4133 58.381 13.44C58.381 13.4933 58.381 13.5867 58.381 13.72C58.381 13.8533 58.361 14.0667 58.321 14.36H53.341C53.3277 14.2667 53.321 14.14 53.321 13.98C53.321 13.8067 53.3544 13.6267 53.421 13.44C53.861 13.3733 54.181 13.2667 54.381 13.12C54.5944 12.96 54.701 12.7 54.701 12.34V6.72C54.4877 6.6933 54.261 6.68 54.021 6.68C53.7944 6.68 53.5677 6.6867 53.341 6.7C53.3677 6.3 53.4144 6.0067 53.481 5.82C54.5877 5.42 55.741 5.16 56.941 5.04C57.0477 5.5867 57.121 6.2067 57.161 6.9C57.8277 5.5933 58.8677 4.94 60.281 4.94C61.1477 4.94 61.8544 5.2133 62.401 5.76C62.9477 6.2933 63.221 7.0533 63.221 8.04ZM70.7295 6.28C69.8761 6.28 69.2428 6.54 68.8295 7.06C68.4161 7.5667 68.2095 8.4467 68.2095 9.7C68.2095 11.94 68.9161 13.06 70.3295 13.06C70.8761 13.06 71.3628 12.9133 71.7895 12.62V6.38C71.4295 6.3133 71.0761 6.28 70.7295 6.28ZM75.8495 13.48C75.2095 14.24 74.4961 14.62 73.7095 14.62C72.9228 14.62 72.3428 14.2933 71.9695 13.64C71.2095 14.28 70.3428 14.6 69.3695 14.6C68.4095 14.6 67.5361 14.2 66.7495 13.4C65.9761 12.6 65.5895 11.44 65.5895 9.92C65.5895 8.4 66.1228 7.1933 67.1895 6.3C68.2561 5.3933 69.6161 4.94 71.2695 4.94C71.4961 4.94 71.6695 4.9467 71.7895 4.96V1.66C71.6561 1.6467 71.4761 1.64 71.2495 1.64C71.0228 1.64 70.7495 1.6467 70.4295 1.66C70.4561 1.2467 70.5028 0.946698 70.5695 0.759998C71.7295 0.346698 72.9628 0.0933 74.2695 0V12.06C74.2695 12.74 74.4695 13.08 74.8695 13.08C74.9628 13.08 75.2095 13.04 75.6095 12.96L75.8495 13.48ZM78.2557 12.32V6.72C78.0424 6.6933 77.8157 6.68 77.5757 6.68C77.3491 6.68 77.1224 6.6867 76.8957 6.7C76.9224 6.3 76.9691 6.0067 77.0357 5.82C78.1424 5.42 79.2957 5.16 80.4957 5.04C80.6291 5.8667 80.7091 6.78 80.7357 7.78C81.0691 6.94 81.5424 6.26 82.1557 5.74C82.7824 5.2067 83.4757 4.94 84.2357 4.94C84.3024 5.18 84.3357 5.4867 84.3357 5.86C84.3357 6.22 84.2691 6.6867 84.1357 7.26C82.1091 7.26 80.9757 8.0333 80.7357 9.58V13.06C81.2957 13.2733 81.9157 13.4 82.5957 13.44C82.5957 13.5067 82.5957 13.62 82.5957 13.78C82.5957 13.9267 82.5691 14.12 82.5157 14.36H76.8957C76.8824 14.2667 76.8757 14.14 76.8757 13.98C76.8757 13.8067 76.9091 13.6267 76.9757 13.44C77.4157 13.3733 77.7357 13.2667 77.9357 13.12C78.1491 12.96 78.2557 12.6933 78.2557 12.32ZM87.4673 11.86C87.4673 12.22 87.5673 12.5067 87.7673 12.72C87.9806 12.9333 88.3006 13.04 88.7273 13.04C89.1673 13.04 89.5606 12.8467 89.9073 12.46V9.86L89.0273 10.1C87.9873 10.3933 87.4673 10.98 87.4673 11.86ZM91.9673 14.62C91.514 14.62 91.1006 14.5267 90.7273 14.34C90.3673 14.14 90.1206 13.86 89.9873 13.5C89.3473 14.2467 88.5806 14.62 87.6873 14.62C86.8073 14.62 86.114 14.38 85.6073 13.9C85.1006 13.42 84.8473 12.8067 84.8473 12.06C84.8473 11.3133 85.0873 10.72 85.5673 10.28C86.0473 9.84 86.774 9.52 87.7473 9.32L89.9073 8.88V8.16C89.9073 7.6533 89.7806 7.2867 89.5273 7.06C89.2873 6.82 88.8406 6.7 88.1873 6.7C87.5473 6.7 86.8073 6.8467 85.9673 7.14L85.4673 6.4C86.5873 5.4267 87.8806 4.94 89.3473 4.94C90.3473 4.94 91.1006 5.2133 91.6073 5.76C92.114 6.3067 92.3673 7.08 92.3673 8.08V12.06C92.3673 12.74 92.5806 13.08 93.0073 13.08C93.074 13.08 93.3206 13.04 93.7473 12.96L93.9473 13.48C93.334 14.24 92.674 14.62 91.9673 14.62ZM98.2501 3.44C97.9572 3.7333 97.6039 3.88 97.1906 3.88C96.7772 3.88 96.4239 3.7333 96.1306 3.44C95.8372 3.1467 95.6906 2.7933 95.6906 2.38C95.6906 1.9667 95.8372 1.6133 96.1306 1.32C96.4239 1.0267 96.7772 0.879999 97.1906 0.879999C97.6172 0.879999 97.9701 1.0267 98.2501 1.32C98.5441 1.6 98.6901 1.9533 98.6901 2.38C98.6901 2.7933 98.5441 3.1467 98.2501 3.44ZM95.9706 14.2V6.72C95.7572 6.6933 95.5306 6.68 95.2906 6.68C95.0639 6.68 94.8372 6.6867 94.6106 6.7C94.6372 6.3133 94.6839 6.0067 94.7506 5.78C95.9106 5.3933 97.1439 5.1467 98.4501 5.04V13.88C98.4501 16.4267 97.1039 18.1733 94.4106 19.12L93.8906 18.36C94.6506 17.8667 95.1839 17.32 95.4906 16.72C95.8106 16.12 95.9706 15.28 95.9706 14.2ZM103.229 11.86C103.229 12.22 103.329 12.5067 103.529 12.72C103.742 12.9333 104.062 13.04 104.489 13.04C104.929 13.04 105.322 12.8467 105.669 12.46V9.86L104.789 10.1C103.749 10.3933 103.229 10.98 103.229 11.86ZM107.729 14.62C107.276 14.62 106.862 14.5267 106.489 14.34C106.129 14.14 105.882 13.86 105.749 13.5C105.109 14.2467 104.342 14.62 103.449 14.62C102.569 14.62 101.876 14.38 101.369 13.9C100.862 13.42 100.609 12.8067 100.609 12.06C100.609 11.3133 100.849 10.72 101.329 10.28C101.809 9.84 102.536 9.52 103.509 9.32L105.669 8.88V8.16C105.669 7.6533 105.542 7.2867 105.289 7.06C105.049 6.82 104.602 6.7 103.949 6.7C103.309 6.7 102.569 6.8467 101.729 7.14L101.229 6.4C102.349 5.4267 103.642 4.94 105.109 4.94C106.109 4.94 106.862 5.2133 107.369 5.76C107.876 6.3067 108.129 7.08 108.129 8.08V12.06C108.129 12.74 108.342 13.08 108.769 13.08C108.836 13.08 109.082 13.04 109.509 12.96L109.709 13.48C109.096 14.24 108.436 14.62 107.729 14.62ZM55.5051 30.86C55.5051 31.9933 55.0651 32.9 54.1851 33.58C53.3051 34.26 52.2918 34.6 51.1451 34.6C49.9984 34.6 48.6918 34.3667 47.2251 33.9C47.2118 33.6467 47.2051 33.24 47.2051 32.68C47.2051 32.12 47.2651 31.3133 47.3851 30.26C47.7451 30.26 48.0851 30.2933 48.4051 30.36C48.4051 30.4 48.4051 30.44 48.4051 30.48C48.4051 32.4267 49.3118 33.4 51.1251 33.4C51.7518 33.4 52.2584 33.2467 52.6451 32.94C53.0318 32.62 53.2251 32.1867 53.2251 31.64C53.2251 31.0933 53.0184 30.6133 52.6051 30.2C52.2051 29.7867 51.7118 29.44 51.1251 29.16C50.5518 28.8667 49.9718 28.56 49.3851 28.24C48.7984 27.9067 48.2984 27.4533 47.8851 26.88C47.4851 26.3067 47.2851 25.6267 47.2851 24.84C47.2851 23.7733 47.6784 22.94 48.4651 22.34C49.2518 21.7267 50.2184 21.42 51.3651 21.42C52.5118 21.42 53.6984 21.6133 54.9251 22C54.9251 22.9333 54.8384 23.96 54.6651 25.08C54.3851 25.08 54.1118 25.06 53.8451 25.02C53.6184 23.3933 52.8184 22.58 51.4451 22.58C50.8451 22.58 50.3584 22.7267 49.9851 23.02C49.6118 23.3133 49.4251 23.72 49.4251 24.24C49.4251 24.7467 49.6318 25.2 50.0451 25.6C50.4718 26 50.9784 26.34 51.5651 26.62C52.1651 26.9 52.7584 27.2 53.3451 27.52C53.9451 27.8267 54.4518 28.2667 54.8651 28.84C55.2918 29.4 55.5051 30.0733 55.5051 30.86ZM60.5357 23.44C60.2424 23.7333 59.8891 23.88 59.4757 23.88C59.0624 23.88 58.7091 23.7333 58.4157 23.44C58.1224 23.1467 57.9757 22.7933 57.9757 22.38C57.9757 21.9667 58.1224 21.6133 58.4157 21.32C58.7091 21.0267 59.0624 20.88 59.4757 20.88C59.9024 20.88 60.2557 21.0267 60.5357 21.32C60.8291 21.6 60.9757 21.9533 60.9757 22.38C60.9757 22.7933 60.8291 23.1467 60.5357 23.44ZM61.9357 33.44C61.9357 33.4933 61.9357 33.5867 61.9357 33.72C61.9357 33.8533 61.9157 34.0667 61.8757 34.36H56.8957C56.8824 34.2667 56.8757 34.14 56.8757 33.98C56.8757 33.8067 56.9091 33.6267 56.9757 33.44C57.4157 33.3733 57.7357 33.2667 57.9357 33.12C58.1491 32.96 58.2557 32.7 58.2557 32.34V26.72C58.0424 26.6933 57.8157 26.68 57.5757 26.68C57.3491 26.68 57.1224 26.6867 56.8957 26.7C56.9224 26.3133 56.9691 26.0067 57.0357 25.78C58.1957 25.3933 59.4291 25.1467 60.7357 25.04V33.18C61.0691 33.3267 61.4691 33.4133 61.9357 33.44ZM64.5839 32.32V26.72C64.3705 26.6933 64.1439 26.68 63.9039 26.68C63.6772 26.68 63.4505 26.6867 63.2239 26.7C63.2505 26.3 63.2972 26.0067 63.3639 25.82C64.4705 25.42 65.6239 25.16 66.8239 25.04C66.9572 25.8667 67.0372 26.78 67.0639 27.78C67.3972 26.94 67.8705 26.26 68.4839 25.74C69.1105 25.2067 69.8039 24.94 70.5639 24.94C70.6305 25.18 70.6639 25.4867 70.6639 25.86C70.6639 26.22 70.5972 26.6867 70.4639 27.26C68.4372 27.26 67.3039 28.0333 67.0639 29.58V33.06C67.6239 33.2733 68.2439 33.4 68.9239 33.44C68.9239 33.5067 68.9239 33.62 68.9239 33.78C68.9239 33.9267 68.8972 34.12 68.8439 34.36H63.2239C63.2105 34.2667 63.2039 34.14 63.2039 33.98C63.2039 33.8067 63.2372 33.6267 63.3039 33.44C63.7439 33.3733 64.0639 33.2667 64.2639 33.12C64.4772 32.96 64.5839 32.6933 64.5839 32.32ZM74.7154 23.44C74.4221 23.7333 74.0687 23.88 73.6554 23.88C73.2421 23.88 72.8887 23.7333 72.5954 23.44C72.3021 23.1467 72.1554 22.7933 72.1554 22.38C72.1554 21.9667 72.3021 21.6133 72.5954 21.32C72.8887 21.0267 73.2421 20.88 73.6554 20.88C74.0821 20.88 74.4354 21.0267 74.7154 21.32C75.0087 21.6 75.1554 21.9533 75.1554 22.38C75.1554 22.7933 75.0087 23.1467 74.7154 23.44ZM76.1154 33.44C76.1154 33.4933 76.1154 33.5867 76.1154 33.72C76.1154 33.8533 76.0954 34.0667 76.0554 34.36H71.0754C71.0621 34.2667 71.0554 34.14 71.0554 33.98C71.0554 33.8067 71.0887 33.6267 71.1554 33.44C71.5954 33.3733 71.9154 33.2667 72.1154 33.12C72.3287 32.96 72.4354 32.7 72.4354 32.34V26.72C72.2221 26.6933 71.9954 26.68 71.7554 26.68C71.5287 26.68 71.3021 26.6867 71.0754 26.7C71.1021 26.3133 71.1487 26.0067 71.2154 25.78C72.3754 25.3933 73.6087 25.1467 74.9154 25.04V33.18C75.2487 33.3267 75.6487 33.4133 76.1154 33.44ZM81.1635 33.12C81.5769 33.3067 82.0769 33.4 82.6635 33.4C83.2502 33.4 83.7702 33.0867 84.2235 32.46C84.6902 31.8333 84.9235 30.9133 84.9235 29.7C84.9235 28.4733 84.7302 27.6133 84.3435 27.12C83.9702 26.6133 83.5435 26.36 83.0635 26.36C82.5969 26.36 82.1902 26.5333 81.8435 26.88C81.5102 27.2267 81.2835 27.7 81.1635 28.3V33.12ZM78.6835 37V26.72C78.4702 26.6933 78.2435 26.68 78.0035 26.68C77.7635 26.68 77.5369 26.6867 77.3235 26.7C77.3502 26.3533 77.4035 26.06 77.4835 25.82C78.5769 25.42 79.7035 25.16 80.8635 25.04C80.9835 25.5867 81.0635 26.1133 81.1035 26.62C81.6369 25.5 82.4702 24.94 83.6035 24.94C84.7369 24.94 85.6835 25.36 86.4435 26.2C87.2035 27.0267 87.5835 28.1867 87.5835 29.68C87.5835 31.16 87.0635 32.3533 86.0235 33.26C84.9969 34.1533 83.7702 34.6 82.3435 34.6C81.9302 34.6 81.5369 34.54 81.1635 34.42V37.66C81.7235 37.9267 82.3302 38.0733 82.9835 38.1C82.9969 38.1933 83.0035 38.32 83.0035 38.48C83.0035 38.64 82.9769 38.8267 82.9235 39.04H77.3035C77.3035 38.96 77.3035 38.8333 77.3035 38.66C77.3035 38.4867 77.3369 38.3 77.4035 38.1C77.8435 38.0333 78.1635 37.92 78.3635 37.76C78.5769 37.6133 78.6835 37.36 78.6835 37ZM98.1511 27V32.78C98.5771 32.8467 98.9771 32.88 99.3511 32.88C99.3911 33.04 99.4111 33.1933 99.4111 33.34C99.4111 33.4867 99.4041 33.6133 99.3911 33.72C98.3911 34.1733 97.2441 34.42 95.9507 34.46C95.8307 33.8467 95.7507 33.2333 95.7107 32.62C94.9907 33.94 93.9507 34.6 92.5907 34.6C91.7241 34.6 91.0174 34.3267 90.4707 33.78C89.9241 33.22 89.6507 32.4467 89.6507 31.46V26.64C89.4507 26.6267 89.2441 26.62 89.0307 26.62C88.8307 26.62 88.6507 26.62 88.4907 26.62C88.5174 26.22 88.5641 25.9267 88.6307 25.74C89.8041 25.3 90.9641 25.0467 92.1107 24.98V31.18C92.1107 31.74 92.2441 32.1733 92.5107 32.48C92.7907 32.7733 93.1507 32.92 93.5907 32.92C94.4841 32.92 95.1841 32.28 95.6907 31V27.5C95.6907 26.7 95.4107 26.18 94.8507 25.94C94.9041 25.6867 94.9707 25.5 95.0507 25.38C95.7841 25.1 96.5707 24.96 97.4107 24.96C97.6774 24.96 97.9507 24.9733 98.2311 25C98.1771 25.48 98.1511 26.1467 98.1511 27ZM102.064 32.32V26.72C101.851 26.6933 101.624 26.68 101.384 26.68C101.158 26.68 100.931 26.6867 100.704 26.7C100.731 26.3 100.778 26.0067 100.844 25.82C101.951 25.42 103.104 25.16 104.304 25.04C104.438 25.8667 104.518 26.78 104.544 27.78C104.878 26.94 105.351 26.26 105.964 25.74C106.591 25.2067 107.284 24.94 108.044 24.94C108.111 25.18 108.144 25.4867 108.144 25.86C108.144 26.22 108.078 26.6867 107.944 27.26C105.918 27.26 104.784 28.0333 104.544 29.58V33.06C105.104 33.2733 105.724 33.4 106.404 33.44C106.404 33.5067 106.404 33.62 106.404 33.78C106.404 33.9267 106.378 34.12 106.324 34.36H100.704C100.691 34.2667 100.684 34.14 100.684 33.98C100.684 33.8067 100.718 33.6267 100.784 33.44C101.224 33.3733 101.544 33.2667 101.744 33.12C101.958 32.96 102.064 32.6933 102.064 32.32ZM111.276 31.86C111.276 32.22 111.376 32.5067 111.576 32.72C111.789 32.9333 112.109 33.04 112.536 33.04C112.976 33.04 113.369 32.8467 113.716 32.46V29.86L112.836 30.1C111.796 30.3933 111.276 30.98 111.276 31.86ZM115.776 34.62C115.322 34.62 114.909 34.5267 114.536 34.34C114.176 34.14 113.929 33.86 113.796 33.5C113.156 34.2467 112.389 34.62 111.496 34.62C110.616 34.62 109.922 34.38 109.416 33.9C108.909 33.42 108.656 32.8067 108.656 32.06C108.656 31.3133 108.896 30.72 109.376 30.28C109.856 29.84 110.582 29.52 111.556 29.32L113.716 28.88V28.16C113.716 27.6533 113.589 27.2867 113.336 27.06C113.096 26.82 112.649 26.7 111.996 26.7C111.356 26.7 110.616 26.8467 109.776 27.14L109.276 26.4C110.396 25.4267 111.689 24.94 113.156 24.94C114.156 24.94 114.909 25.2133 115.416 25.76C115.922 26.3067 116.176 27.08 116.176 28.08V32.06C116.176 32.74 116.389 33.08 116.816 33.08C116.882 33.08 117.129 33.04 117.556 32.96L117.756 33.48C117.142 34.24 116.482 34.62 115.776 34.62ZM134.359 28.04V33.18C134.919 33.34 135.366 33.4267 135.699 33.44C135.712 33.5067 135.719 33.62 135.719 33.78C135.719 33.9267 135.686 34.12 135.619 34.36H130.719C130.706 34.2667 130.699 34.1467 130.699 34C130.699 33.8533 130.726 33.6667 130.779 33.44C131.179 33.3733 131.459 33.2667 131.619 33.12C131.792 32.9733 131.879 32.7133 131.879 32.34V28.32C131.879 27.7467 131.746 27.32 131.479 27.04C131.226 26.7467 130.872 26.6 130.419 26.6C129.486 26.6 128.779 27.24 128.299 28.52V33.18C128.632 33.3267 129.039 33.4133 129.519 33.44C129.519 33.5067 129.519 33.62 129.519 33.78C129.519 33.9267 129.492 34.12 129.439 34.36H124.659C124.646 34.2667 124.639 34.14 124.639 33.98C124.639 33.8067 124.672 33.6267 124.739 33.44C125.139 33.3733 125.419 33.2667 125.579 33.12C125.739 32.9733 125.819 32.7133 125.819 32.34V28.32C125.819 27.7467 125.686 27.32 125.419 27.04C125.166 26.7467 124.812 26.6 124.359 26.6C123.439 26.6 122.739 27.22 122.259 28.46V33.18C122.592 33.3267 122.992 33.4133 123.459 33.44C123.459 33.4933 123.459 33.5867 123.459 33.72C123.459 33.8533 123.439 34.0667 123.399 34.36H118.419C118.406 34.2667 118.399 34.14 118.399 33.98C118.399 33.8067 118.432 33.6267 118.499 33.44C118.939 33.3733 119.259 33.2667 119.459 33.12C119.672 32.96 119.779 32.7 119.779 32.34V26.72C119.566 26.6933 119.339 26.68 119.099 26.68C118.872 26.68 118.646 26.6867 118.419 26.7C118.446 26.3 118.492 26.0067 118.559 25.82C119.666 25.42 120.819 25.16 122.019 25.04C122.126 25.5867 122.199 26.2067 122.239 26.9C122.906 25.5933 123.946 24.94 125.359 24.94C126.066 24.94 126.666 25.1267 127.159 25.5C127.666 25.86 128.006 26.38 128.179 27.06C128.499 26.3667 128.939 25.84 129.499 25.48C130.072 25.12 130.752 24.94 131.539 24.94C132.326 24.94 132.992 25.2133 133.539 25.76C134.086 26.2933 134.359 27.0533 134.359 28.04Z" fill="#9D5C06"/>
<path d="M10.835 6.34488V32.5249C11.8983 32.9649 13.1633 33.1849 14.63 33.1849C14.63 33.3316 14.63 33.5882 14.63 33.9549C14.63 34.3216 14.575 34.9082 14.465 35.7149H0.165C0.165 35.4949 0.165 35.1649 0.165 34.7249C0.165 34.2482 0.25667 33.7349 0.44 33.1849C1.65 33.0016 2.53 32.7082 3.08 32.3049C3.63 31.9016 3.905 31.1866 3.905 30.1599V4.03488C2.84167 3.55818 1.54 3.31988 0 3.31988C0 2.21988 0.0916699 1.37658 0.275 0.789883H14.52C14.5567 1.04658 14.575 1.41318 14.575 1.88988C14.575 2.32988 14.4833 2.80658 14.3 3.31988C13.1267 3.46658 12.2467 3.75988 11.66 4.19988C11.11 4.60318 10.835 5.31818 10.835 6.34488ZM42.9988 26.0899C42.9988 29.2066 41.7888 31.6999 39.3688 33.5699C36.9488 35.4399 34.1622 36.3749 31.0088 36.3749C27.8555 36.3749 24.2622 35.7332 20.2288 34.4499C20.1922 33.7532 20.1738 32.6349 20.1738 31.0949C20.1738 29.5549 20.3388 27.3366 20.6688 24.4399C21.6588 24.4399 22.5938 24.5316 23.4738 24.7149C23.4738 24.8249 23.4738 24.9349 23.4738 25.0449C23.4738 30.3982 25.9672 33.0749 30.9538 33.0749C32.6772 33.0749 34.0705 32.6532 35.1338 31.8099C36.1972 30.9299 36.7288 29.7382 36.7288 28.2349C36.7288 26.7316 36.1605 25.4116 35.0238 24.2749C33.9238 23.1382 32.5672 22.1849 30.9538 21.4149C29.3772 20.6082 27.7822 19.7649 26.1688 18.8849C24.5555 17.9682 23.1805 16.7216 22.0438 15.1449C20.9438 13.5682 20.3938 11.6982 20.3938 9.53488C20.3938 6.60158 21.4755 4.30988 23.6388 2.65988C25.8022 0.973184 28.4605 0.129883 31.6138 0.129883C34.7672 0.129883 38.0305 0.661582 41.4038 1.72488C41.4038 4.29158 41.1655 7.11488 40.6888 10.1949C39.9188 10.1949 39.1672 10.1399 38.4338 10.0299C37.8105 5.55658 35.6105 3.31988 31.8338 3.31988C30.1838 3.31988 28.8455 3.72318 27.8188 4.52988C26.7922 5.33658 26.2788 6.45488 26.2788 7.88488C26.2788 9.27818 26.8472 10.5249 27.9838 11.6249C29.1572 12.7249 30.5505 13.6599 32.1638 14.4299C33.8138 15.1999 35.4455 16.0249 37.0588 16.9049C38.7088 17.7482 40.1022 18.9582 41.2388 20.5349C42.4122 22.0749 42.9988 23.9266 42.9988 26.0899Z" fill="#9D5C06"/>
</svg>
