<svg width="111" height="40" viewBox="0 0 111 40" fill="none" xmlns="http://www.w3.org/2000/svg">
<path d="M24.94 3.68V13.2C25.3267 13.36 25.7867 13.44 26.32 13.44C26.32 13.4933 26.32 13.5867 26.32 13.72C26.32 13.8533 26.3 14.0667 26.26 14.36H21.06C21.06 14.28 21.06 14.16 21.06 14C21.06 13.8267 21.0933 13.64 21.16 13.44C21.6 13.3733 21.92 13.2667 22.12 13.12C22.32 12.9733 22.42 12.7133 22.42 12.34V2.84C22.0333 2.6667 21.56 2.58 21 2.58C21 2.18 21.0333 1.8733 21.1 1.66H26.28C26.2933 1.7533 26.3 1.8867 26.3 2.06C26.3 2.22 26.2667 2.3933 26.2 2.58C25.7733 2.6333 25.4533 2.74 25.24 2.9C25.04 3.0467 24.94 3.3067 24.94 3.68ZM37.5159 8.04V13.18C38.0893 13.34 38.5426 13.4267 38.8759 13.44C38.8893 13.5067 38.8959 13.62 38.8959 13.78C38.8959 13.9267 38.8626 14.12 38.7959 14.36H33.8759C33.8626 14.2667 33.8559 14.14 33.8559 13.98C33.8559 13.8067 33.8893 13.6267 33.9559 13.44C34.3559 13.3733 34.6359 13.2667 34.7959 13.12C34.9559 12.9733 35.0359 12.7133 35.0359 12.34V8.32C35.0359 7.7467 34.9026 7.32 34.6359 7.04C34.3826 6.7467 34.0293 6.6 33.5759 6.6C32.6559 6.6 31.9559 7.22 31.4759 8.46V13.18C31.8093 13.3267 32.2093 13.4133 32.6759 13.44C32.6759 13.4933 32.6759 13.5867 32.6759 13.72C32.6759 13.8533 32.6559 14.0667 32.6159 14.36H27.6359C27.6226 14.2667 27.6159 14.14 27.6159 13.98C27.6159 13.8067 27.6493 13.6267 27.7159 13.44C28.1559 13.3733 28.4759 13.2667 28.6759 13.12C28.8893 12.96 28.9959 12.7 28.9959 12.34V6.72C28.7826 6.6933 28.5559 6.68 28.3159 6.68C28.0893 6.68 27.8626 6.6867 27.6359 6.7C27.6626 6.3 27.7093 6.0067 27.7759 5.82C28.8826 5.42 30.0359 5.16 31.2359 5.04C31.3426 5.5867 31.4159 6.2067 31.4559 6.9C32.1226 5.5933 33.1626 4.94 34.5759 4.94C35.4426 4.94 36.1493 5.2133 36.6959 5.76C37.2426 6.2933 37.5159 7.0533 37.5159 8.04ZM45.0244 6.28C44.171 6.28 43.5377 6.54 43.1244 7.06C42.711 7.5667 42.5044 8.4467 42.5044 9.7C42.5044 11.94 43.211 13.06 44.6244 13.06C45.171 13.06 45.6577 12.9133 46.0844 12.62V6.38C45.7244 6.3133 45.371 6.28 45.0244 6.28ZM50.1444 13.48C49.5044 14.24 48.791 14.62 48.0044 14.62C47.2177 14.62 46.6377 14.2933 46.2644 13.64C45.5044 14.28 44.6377 14.6 43.6644 14.6C42.7044 14.6 41.831 14.2 41.0444 13.4C40.271 12.6 39.8844 11.44 39.8844 9.92C39.8844 8.4 40.4177 7.1933 41.4844 6.3C42.551 5.3933 43.911 4.94 45.5644 4.94C45.791 4.94 45.9644 4.9467 46.0844 4.96V1.66C45.951 1.6467 45.771 1.64 45.5444 1.64C45.3177 1.64 45.0444 1.6467 44.7244 1.66C44.751 1.2467 44.7977 0.946698 44.8644 0.759998C46.0244 0.346698 47.2577 0.0933 48.5644 0V12.06C48.5644 12.74 48.7644 13.08 49.1644 13.08C49.2577 13.08 49.5044 13.04 49.9044 12.96L50.1444 13.48ZM52.5506 12.32V6.72C52.3373 6.6933 52.1106 6.68 51.8706 6.68C51.644 6.68 51.4173 6.6867 51.1906 6.7C51.2173 6.3 51.264 6.0067 51.3306 5.82C52.4373 5.42 53.5906 5.16 54.7906 5.04C54.924 5.8667 55.004 6.78 55.0306 7.78C55.364 6.94 55.8373 6.26 56.4506 5.74C57.0773 5.2067 57.7706 4.94 58.5306 4.94C58.5973 5.18 58.6306 5.4867 58.6306 5.86C58.6306 6.22 58.564 6.6867 58.4306 7.26C56.404 7.26 55.2706 8.0333 55.0306 9.58V13.06C55.5906 13.2733 56.2106 13.4 56.8906 13.44C56.8906 13.5067 56.8906 13.62 56.8906 13.78C56.8906 13.9267 56.864 14.12 56.8106 14.36H51.1906C51.1773 14.2667 51.1706 14.14 51.1706 13.98C51.1706 13.8067 51.204 13.6267 51.2706 13.44C51.7106 13.3733 52.0306 13.2667 52.2306 13.12C52.444 12.96 52.5506 12.6933 52.5506 12.32ZM61.7622 11.86C61.7622 12.22 61.8622 12.5067 62.0622 12.72C62.2755 12.9333 62.5955 13.04 63.0222 13.04C63.4622 13.04 63.8555 12.8467 64.2022 12.46V9.86L63.3222 10.1C62.2822 10.3933 61.7622 10.98 61.7622 11.86ZM66.2622 14.62C65.8089 14.62 65.3955 14.5267 65.0222 14.34C64.6622 14.14 64.4155 13.86 64.2822 13.5C63.6422 14.2467 62.8755 14.62 61.9822 14.62C61.1022 14.62 60.4089 14.38 59.9022 13.9C59.3955 13.42 59.1422 12.8067 59.1422 12.06C59.1422 11.3133 59.3822 10.72 59.8622 10.28C60.3422 9.84 61.0689 9.52 62.0422 9.32L64.2022 8.88V8.16C64.2022 7.6533 64.0755 7.2867 63.8222 7.06C63.5822 6.82 63.1355 6.7 62.4822 6.7C61.8422 6.7 61.1022 6.8467 60.2622 7.14L59.7622 6.4C60.8822 5.4267 62.1755 4.94 63.6422 4.94C64.6422 4.94 65.3955 5.2133 65.9022 5.76C66.4089 6.3067 66.6622 7.08 66.6622 8.08V12.06C66.6622 12.74 66.8755 13.08 67.3022 13.08C67.3689 13.08 67.6155 13.04 68.0422 12.96L68.2422 13.48C67.6289 14.24 66.9689 14.62 66.2622 14.62ZM72.545 3.44C72.2521 3.7333 71.8988 3.88 71.4855 3.88C71.0721 3.88 70.7188 3.7333 70.4255 3.44C70.1321 3.1467 69.9855 2.7933 69.9855 2.38C69.9855 1.9667 70.1321 1.6133 70.4255 1.32C70.7188 1.0267 71.0721 0.879999 71.4855 0.879999C71.9121 0.879999 72.265 1.0267 72.545 1.32C72.839 1.6 72.985 1.9533 72.985 2.38C72.985 2.7933 72.839 3.1467 72.545 3.44ZM70.2655 14.2V6.72C70.0521 6.6933 69.8255 6.68 69.5855 6.68C69.3588 6.68 69.1321 6.6867 68.9055 6.7C68.9321 6.3133 68.9788 6.0067 69.0455 5.78C70.2055 5.3933 71.4388 5.1467 72.745 5.04V13.88C72.745 16.4267 71.3988 18.1733 68.7055 19.12L68.1855 18.36C68.9455 17.8667 69.4788 17.32 69.7855 16.72C70.1055 16.12 70.2655 15.28 70.2655 14.2ZM77.524 11.86C77.524 12.22 77.624 12.5067 77.824 12.72C78.037 12.9333 78.357 13.04 78.784 13.04C79.224 13.04 79.617 12.8467 79.964 12.46V9.86L79.084 10.1C78.044 10.3933 77.524 10.98 77.524 11.86ZM82.024 14.62C81.571 14.62 81.157 14.5267 80.784 14.34C80.424 14.14 80.177 13.86 80.044 13.5C79.404 14.2467 78.637 14.62 77.744 14.62C76.864 14.62 76.171 14.38 75.664 13.9C75.157 13.42 74.904 12.8067 74.904 12.06C74.904 11.3133 75.144 10.72 75.624 10.28C76.104 9.84 76.831 9.52 77.804 9.32L79.964 8.88V8.16C79.964 7.6533 79.837 7.2867 79.584 7.06C79.344 6.82 78.897 6.7 78.244 6.7C77.604 6.7 76.864 6.8467 76.024 7.14L75.524 6.4C76.644 5.4267 77.937 4.94 79.404 4.94C80.404 4.94 81.157 5.2133 81.664 5.76C82.171 6.3067 82.424 7.08 82.424 8.08V12.06C82.424 12.74 82.637 13.08 83.064 13.08C83.131 13.08 83.377 13.04 83.804 12.96L84.004 13.48C83.391 14.24 82.731 14.62 82.024 14.62ZM29.8 30.86C29.8 31.9933 29.36 32.9 28.48 33.58C27.6 34.26 26.5867 34.6 25.44 34.6C24.2933 34.6 22.9867 34.3667 21.52 33.9C21.5067 33.6467 21.5 33.24 21.5 32.68C21.5 32.12 21.56 31.3133 21.68 30.26C22.04 30.26 22.38 30.2933 22.7 30.36C22.7 30.4 22.7 30.44 22.7 30.48C22.7 32.4267 23.6067 33.4 25.42 33.4C26.0467 33.4 26.5533 33.2467 26.94 32.94C27.3267 32.62 27.52 32.1867 27.52 31.64C27.52 31.0933 27.3133 30.6133 26.9 30.2C26.5 29.7867 26.0067 29.44 25.42 29.16C24.8467 28.8667 24.2667 28.56 23.68 28.24C23.0933 27.9067 22.5933 27.4533 22.18 26.88C21.78 26.3067 21.58 25.6267 21.58 24.84C21.58 23.7733 21.9733 22.94 22.76 22.34C23.5467 21.7267 24.5133 21.42 25.66 21.42C26.8067 21.42 27.9933 21.6133 29.22 22C29.22 22.9333 29.1333 23.96 28.96 25.08C28.68 25.08 28.4067 25.06 28.14 25.02C27.9133 23.3933 27.1133 22.58 25.74 22.58C25.14 22.58 24.6533 22.7267 24.28 23.02C23.9067 23.3133 23.72 23.72 23.72 24.24C23.72 24.7467 23.9267 25.2 24.34 25.6C24.7667 26 25.2733 26.34 25.86 26.62C26.46 26.9 27.0533 27.2 27.64 27.52C28.24 27.8267 28.7467 28.2667 29.16 28.84C29.5867 29.4 29.8 30.0733 29.8 30.86ZM34.8306 23.44C34.5373 23.7333 34.184 23.88 33.7706 23.88C33.3573 23.88 33.004 23.7333 32.7106 23.44C32.4173 23.1467 32.2706 22.7933 32.2706 22.38C32.2706 21.9667 32.4173 21.6133 32.7106 21.32C33.004 21.0267 33.3573 20.88 33.7706 20.88C34.1973 20.88 34.5506 21.0267 34.8306 21.32C35.124 21.6 35.2706 21.9533 35.2706 22.38C35.2706 22.7933 35.124 23.1467 34.8306 23.44ZM36.2306 33.44C36.2306 33.4933 36.2306 33.5867 36.2306 33.72C36.2306 33.8533 36.2106 34.0667 36.1706 34.36H31.1906C31.1773 34.2667 31.1706 34.14 31.1706 33.98C31.1706 33.8067 31.204 33.6267 31.2706 33.44C31.7106 33.3733 32.0306 33.2667 32.2306 33.12C32.444 32.96 32.5506 32.7 32.5506 32.34V26.72C32.3373 26.6933 32.1106 26.68 31.8706 26.68C31.644 26.68 31.4173 26.6867 31.1906 26.7C31.2173 26.3133 31.264 26.0067 31.3306 25.78C32.4906 25.3933 33.724 25.1467 35.0306 25.04V33.18C35.364 33.3267 35.764 33.4133 36.2306 33.44ZM38.8788 32.32V26.72C38.6654 26.6933 38.4388 26.68 38.1988 26.68C37.9721 26.68 37.7454 26.6867 37.5188 26.7C37.5454 26.3 37.5921 26.0067 37.6588 25.82C38.7654 25.42 39.9188 25.16 41.1188 25.04C41.2521 25.8667 41.3321 26.78 41.3588 27.78C41.6921 26.94 42.1654 26.26 42.7788 25.74C43.4054 25.2067 44.0988 24.94 44.8588 24.94C44.9254 25.18 44.9588 25.4867 44.9588 25.86C44.9588 26.22 44.8921 26.6867 44.7588 27.26C42.7321 27.26 41.5988 28.0333 41.3588 29.58V33.06C41.9188 33.2733 42.5388 33.4 43.2188 33.44C43.2188 33.5067 43.2188 33.62 43.2188 33.78C43.2188 33.9267 43.1921 34.12 43.1388 34.36H37.5188C37.5054 34.2667 37.4988 34.14 37.4988 33.98C37.4988 33.8067 37.5321 33.6267 37.5988 33.44C38.0388 33.3733 38.3588 33.2667 38.5588 33.12C38.7721 32.96 38.8788 32.6933 38.8788 32.32ZM49.0103 23.44C48.717 23.7333 48.3636 23.88 47.9503 23.88C47.537 23.88 47.1836 23.7333 46.8903 23.44C46.597 23.1467 46.4503 22.7933 46.4503 22.38C46.4503 21.9667 46.597 21.6133 46.8903 21.32C47.1836 21.0267 47.537 20.88 47.9503 20.88C48.377 20.88 48.7303 21.0267 49.0103 21.32C49.3036 21.6 49.4503 21.9533 49.4503 22.38C49.4503 22.7933 49.3036 23.1467 49.0103 23.44ZM50.4103 33.44C50.4103 33.4933 50.4103 33.5867 50.4103 33.72C50.4103 33.8533 50.3903 34.0667 50.3503 34.36H45.3703C45.357 34.2667 45.3503 34.14 45.3503 33.98C45.3503 33.8067 45.3836 33.6267 45.4503 33.44C45.8903 33.3733 46.2103 33.2667 46.4103 33.12C46.6236 32.96 46.7303 32.7 46.7303 32.34V26.72C46.517 26.6933 46.2903 26.68 46.0503 26.68C45.8236 26.68 45.597 26.6867 45.3703 26.7C45.397 26.3133 45.4436 26.0067 45.5103 25.78C46.6703 25.3933 47.9036 25.1467 49.2103 25.04V33.18C49.5436 33.3267 49.9436 33.4133 50.4103 33.44ZM55.4584 33.12C55.8718 33.3067 56.3718 33.4 56.9584 33.4C57.5451 33.4 58.0651 33.0867 58.5184 32.46C58.9851 31.8333 59.2184 30.9133 59.2184 29.7C59.2184 28.4733 59.0251 27.6133 58.6384 27.12C58.2651 26.6133 57.8384 26.36 57.3584 26.36C56.8918 26.36 56.4851 26.5333 56.1384 26.88C55.8051 27.2267 55.5784 27.7 55.4584 28.3V33.12ZM52.9784 37V26.72C52.7651 26.6933 52.5384 26.68 52.2984 26.68C52.0584 26.68 51.8318 26.6867 51.6184 26.7C51.6451 26.3533 51.6984 26.06 51.7784 25.82C52.8718 25.42 53.9984 25.16 55.1584 25.04C55.2784 25.5867 55.3584 26.1133 55.3984 26.62C55.9318 25.5 56.7651 24.94 57.8984 24.94C59.0318 24.94 59.9784 25.36 60.7384 26.2C61.4984 27.0267 61.8784 28.1867 61.8784 29.68C61.8784 31.16 61.3584 32.3533 60.3184 33.26C59.2918 34.1533 58.0651 34.6 56.6384 34.6C56.2251 34.6 55.8318 34.54 55.4584 34.42V37.66C56.0184 37.9267 56.6251 38.0733 57.2784 38.1C57.2918 38.1933 57.2984 38.32 57.2984 38.48C57.2984 38.64 57.2718 38.8267 57.2184 39.04H51.5984C51.5984 38.96 51.5984 38.8333 51.5984 38.66C51.5984 38.4867 51.6318 38.3 51.6984 38.1C52.1384 38.0333 52.4584 37.92 52.6584 37.76C52.8718 37.6133 52.9784 37.36 52.9784 37ZM72.446 27V32.78C72.872 32.8467 73.272 32.88 73.646 32.88C73.686 33.04 73.706 33.1933 73.706 33.34C73.706 33.4867 73.699 33.6133 73.686 33.72C72.686 34.1733 71.539 34.42 70.2456 34.46C70.1256 33.8467 70.0456 33.2333 70.0056 32.62C69.2856 33.94 68.2456 34.6 66.8856 34.6C66.019 34.6 65.3123 34.3267 64.7656 33.78C64.219 33.22 63.9456 32.4467 63.9456 31.46V26.64C63.7456 26.6267 63.539 26.62 63.3256 26.62C63.1256 26.62 62.9456 26.62 62.7856 26.62C62.8123 26.22 62.859 25.9267 62.9256 25.74C64.099 25.3 65.259 25.0467 66.4056 24.98V31.18C66.4056 31.74 66.539 32.1733 66.8056 32.48C67.0856 32.7733 67.4456 32.92 67.8856 32.92C68.779 32.92 69.479 32.28 69.9856 31V27.5C69.9856 26.7 69.7056 26.18 69.1456 25.94C69.199 25.6867 69.2656 25.5 69.3456 25.38C70.079 25.1 70.8656 24.96 71.7056 24.96C71.9723 24.96 72.2456 24.9733 72.526 25C72.472 25.48 72.446 26.1467 72.446 27ZM76.359 32.32V26.72C76.146 26.6933 75.919 26.68 75.679 26.68C75.453 26.68 75.226 26.6867 74.999 26.7C75.026 26.3 75.073 26.0067 75.139 25.82C76.246 25.42 77.399 25.16 78.599 25.04C78.733 25.8667 78.813 26.78 78.839 27.78C79.173 26.94 79.646 26.26 80.259 25.74C80.886 25.2067 81.579 24.94 82.339 24.94C82.406 25.18 82.439 25.4867 82.439 25.86C82.439 26.22 82.373 26.6867 82.239 27.26C80.213 27.26 79.079 28.0333 78.839 29.58V33.06C79.399 33.2733 80.019 33.4 80.699 33.44C80.699 33.5067 80.699 33.62 80.699 33.78C80.699 33.9267 80.673 34.12 80.619 34.36H74.999C74.986 34.2667 74.979 34.14 74.979 33.98C74.979 33.8067 75.013 33.6267 75.079 33.44C75.519 33.3733 75.839 33.2667 76.039 33.12C76.253 32.96 76.359 32.6933 76.359 32.32ZM85.571 31.86C85.571 32.22 85.671 32.5067 85.871 32.72C86.084 32.9333 86.404 33.04 86.831 33.04C87.271 33.04 87.664 32.8467 88.011 32.46V29.86L87.131 30.1C86.091 30.3933 85.571 30.98 85.571 31.86ZM90.071 34.62C89.617 34.62 89.204 34.5267 88.831 34.34C88.471 34.14 88.224 33.86 88.091 33.5C87.451 34.2467 86.684 34.62 85.791 34.62C84.911 34.62 84.217 34.38 83.711 33.9C83.204 33.42 82.951 32.8067 82.951 32.06C82.951 31.3133 83.191 30.72 83.671 30.28C84.151 29.84 84.877 29.52 85.851 29.32L88.011 28.88V28.16C88.011 27.6533 87.884 27.2867 87.631 27.06C87.391 26.82 86.944 26.7 86.291 26.7C85.651 26.7 84.911 26.8467 84.071 27.14L83.571 26.4C84.691 25.4267 85.984 24.94 87.451 24.94C88.451 24.94 89.204 25.2133 89.711 25.76C90.217 26.3067 90.471 27.08 90.471 28.08V32.06C90.471 32.74 90.684 33.08 91.111 33.08C91.177 33.08 91.424 33.04 91.851 32.96L92.051 33.48C91.437 34.24 90.777 34.62 90.071 34.62ZM108.654 28.04V33.18C109.214 33.34 109.661 33.4267 109.994 33.44C110.007 33.5067 110.014 33.62 110.014 33.78C110.014 33.9267 109.981 34.12 109.914 34.36H105.014C105.001 34.2667 104.994 34.1467 104.994 34C104.994 33.8533 105.021 33.6667 105.074 33.44C105.474 33.3733 105.754 33.2667 105.914 33.12C106.087 32.9733 106.174 32.7133 106.174 32.34V28.32C106.174 27.7467 106.041 27.32 105.774 27.04C105.521 26.7467 105.167 26.6 104.714 26.6C103.781 26.6 103.074 27.24 102.594 28.52V33.18C102.927 33.3267 103.334 33.4133 103.814 33.44C103.814 33.5067 103.814 33.62 103.814 33.78C103.814 33.9267 103.787 34.12 103.734 34.36H98.954C98.941 34.2667 98.934 34.14 98.934 33.98C98.934 33.8067 98.967 33.6267 99.034 33.44C99.434 33.3733 99.714 33.2667 99.874 33.12C100.034 32.9733 100.114 32.7133 100.114 32.34V28.32C100.114 27.7467 99.981 27.32 99.714 27.04C99.461 26.7467 99.107 26.6 98.654 26.6C97.734 26.6 97.034 27.22 96.554 28.46V33.18C96.887 33.3267 97.287 33.4133 97.754 33.44C97.754 33.4933 97.754 33.5867 97.754 33.72C97.754 33.8533 97.734 34.0667 97.694 34.36H92.714C92.701 34.2667 92.694 34.14 92.694 33.98C92.694 33.8067 92.727 33.6267 92.794 33.44C93.234 33.3733 93.554 33.2667 93.754 33.12C93.967 32.96 94.074 32.7 94.074 32.34V26.72C93.861 26.6933 93.634 26.68 93.394 26.68C93.167 26.68 92.941 26.6867 92.714 26.7C92.741 26.3 92.787 26.0067 92.854 25.82C93.961 25.42 95.114 25.16 96.314 25.04C96.421 25.5867 96.494 26.2067 96.534 26.9C97.201 25.5933 98.241 24.94 99.654 24.94C100.361 24.94 100.961 25.1267 101.454 25.5C101.961 25.86 102.301 26.38 102.474 27.06C102.794 26.3667 103.234 25.84 103.794 25.48C104.367 25.12 105.047 24.94 105.834 24.94C106.621 24.94 107.287 25.2133 107.834 25.76C108.381 26.2933 108.654 27.0533 108.654 28.04Z" fill="#955D14"/>
<path d="M12.6278 6.88504V34.6205C13.5727 35.0866 14.6967 35.3197 16 35.3197C16 35.4751 16 35.7469 16 36.1354C16 36.5239 15.9511 37.1454 15.8534 38H3.14662C3.14662 37.7669 3.14662 37.4173 3.14662 36.9512C3.14662 36.4462 3.22807 35.9024 3.39098 35.3197C4.46617 35.1255 5.24812 34.8147 5.73684 34.3874C6.22556 33.9601 6.46992 33.2027 6.46992 32.115V4.4378C5.52507 3.93277 4.36842 3.68032 3 3.68032C3 2.51496 3.08146 1.62156 3.24436 1H15.9023C15.9349 1.27195 15.9511 1.66033 15.9511 2.16535C15.9511 2.6315 15.8696 3.13652 15.7068 3.68032C14.6642 3.83573 13.8822 4.14646 13.3609 4.6126C12.8722 5.03986 12.6278 5.79734 12.6278 6.88504Z" fill="#955D14"/>
<path d="M11.9543 30.5423L11.9544 30.5423L11.9583 30.539C12.8596 29.7823 13.3054 28.7555 13.3054 27.4871C13.3054 26.2149 12.8288 25.0974 11.8903 24.1446C11.0008 23.2124 9.9072 22.4338 8.61333 21.8069C7.37366 21.1633 6.11944 20.4905 4.85066 19.7884C3.61258 19.0743 2.55565 18.1029 1.67961 16.8704C0.845167 15.6562 0.423495 14.2114 0.423495 12.525C0.423495 10.2476 1.24666 8.49023 2.88553 7.22199L2.88554 7.222L2.88763 7.22035C4.54334 5.91065 6.58279 5.25 9.02169 5.25C11.4255 5.25 13.9152 5.65212 16.4917 6.45911C16.4812 8.3892 16.3055 10.503 15.9634 12.8012C15.507 12.7932 15.0595 12.7595 14.6207 12.7002C14.358 10.9715 13.7958 9.63461 12.9096 8.72053C11.986 7.76784 10.7378 7.30235 9.19518 7.30235C7.8522 7.30235 6.73737 7.636 5.87308 8.325L5.87307 8.32501C4.99722 9.02328 4.56446 9.9937 4.56446 11.2049C4.56446 12.3955 5.04633 13.4551 5.98388 14.3757L5.98386 14.3757L5.98674 14.3784C6.9327 15.2781 8.05341 16.0404 9.34646 16.6666L9.34844 16.6675C10.6448 17.2813 11.9269 17.939 13.1946 18.6406L13.1946 18.6407L13.2006 18.6438C14.4645 19.2992 15.5336 20.2401 16.4083 21.4711L16.4082 21.4711L16.4121 21.4764C17.301 22.66 17.75 24.0871 17.75 25.7709C17.75 28.1903 16.8291 30.1117 14.9831 31.5589C13.1199 33.0197 10.977 33.75 8.54458 33.75C6.13386 33.75 3.3817 33.2607 0.285042 32.2747C0.26182 31.7183 0.25 30.8861 0.25 29.7754C0.25 28.5971 0.370609 26.9078 0.613848 24.7028C1.22246 24.7141 1.80188 24.7719 2.35241 24.8757V24.876V24.8765V24.877V24.8775V24.878V24.8785V24.8791V24.8796V24.8801V24.8806V24.8811V24.8816V24.8821V24.8827V24.8832V24.8837V24.8842V24.8847V24.8852V24.8858V24.8863V24.8868V24.8873V24.8878V24.8883V24.8888V24.8894V24.8899V24.8904V24.8909V24.8914V24.8919V24.8925V24.893V24.8935V24.894V24.8945V24.895V24.8956V24.8961V24.8966V24.8971V24.8976V24.8981V24.8986V24.8992V24.8997V24.9002V24.9007V24.9012V24.9017V24.9023V24.9028V24.9033V24.9038V24.9043V24.9048V24.9054V24.9059V24.9064V24.9069V24.9074V24.9079V24.9084V24.909V24.9095V24.91V24.9105V24.911V24.9115V24.9121V24.9126V24.9131V24.9136V24.9141V24.9146V24.9151V24.9157V24.9162V24.9167V24.9172V24.9177V24.9182V24.9188V24.9193V24.9198V24.9203V24.9208V24.9213V24.9219V24.9224V24.9229V24.9234V24.9239V24.9244V24.9249V24.9255V24.926V24.9265V24.927V24.9275V24.928V24.9286V24.9291V24.9296V24.9301V24.9306V24.9311V24.9317V24.9322V24.9327V24.9332V24.9337V24.9342V24.9347C2.35241 27.1099 2.85123 28.7878 3.89297 29.9225C4.93843 31.0612 6.49068 31.6096 8.50121 31.6096C9.90203 31.6096 11.0608 31.2613 11.9543 30.5423Z" fill="#955D14" stroke="white" stroke-width="0.5"/>
</svg>
