<svg width="171" height="48" viewBox="0 0 171 48" fill="none" xmlns="http://www.w3.org/2000/svg">
<g clip-path="url(#clip0_60_331)">
<rect width="171" height="48" fill="white"/>
<path d="M10.957 42.436C12.793 42.436 13.8257 41.5181 14.4683 39.3149L16.2124 34.1514H28.1689L29.9131 39.3838C30.5327 41.541 31.5654 42.436 33.5161 42.436C35.5356 42.436 36.9814 41.082 36.9814 39.1772C36.9814 38.4888 36.8667 37.8691 36.5454 36.9741L27.4575 12.3267C26.4707 9.61865 24.8643 8.42529 22.1562 8.42529C19.54 8.42529 17.9106 9.66455 16.9468 12.3496L7.90479 36.9741C7.60645 37.8232 7.4458 38.6035 7.4458 39.1772C7.4458 41.1738 8.7998 42.436 10.957 42.436ZM17.7271 28.7812L22.0186 15.2183H22.1792L26.5625 28.7812H17.7271ZM44.6694 42H53.8491C63.7861 42 69.6382 35.8267 69.6382 25.3159C69.6382 14.8052 63.7861 8.88428 53.8491 8.88428H44.6694C42.4893 8.88428 41.2041 10.2153 41.2041 12.4873V38.374C41.2041 40.6689 42.4893 42 44.6694 42ZM48.1348 36.2627V14.5986H53.0229C59.1274 14.5986 62.5698 18.4082 62.5698 25.3389C62.5698 32.499 59.2192 36.2627 53.0229 36.2627H48.1348ZM114.848 42.436C117.028 42.436 118.313 41.105 118.313 38.833V31.5581H124.51C131.486 31.5581 136.329 27.0142 136.329 20.2212C136.329 13.4053 131.647 8.88428 124.854 8.88428H114.848C112.668 8.88428 111.383 10.2153 111.383 12.4873V38.833C111.383 41.105 112.668 42.436 114.848 42.436ZM118.313 26.1421V14.3691H123.018C126.988 14.3691 129.283 16.4805 129.283 20.2441C129.283 24.0308 126.965 26.1421 122.995 26.1421H118.313ZM151.819 42.436C154 42.436 155.285 41.105 155.285 38.833V14.6216H162.146C164.005 14.6216 165.268 13.543 165.268 11.7529C165.268 9.96289 164.028 8.88428 162.146 8.88428H141.515C139.61 8.88428 138.371 9.96289 138.371 11.7529C138.371 13.543 139.633 14.6216 141.515 14.6216H148.354V38.833C148.354 41.105 149.639 42.436 151.819 42.436Z" fill="black"/>
<g clip-path="url(#clip1_60_331)">
<path d="M90 22.187C84.1063 22.187 75.75 31.0584 75.75 36.6582C75.75 39.1803 77.7398 40.687 81.0745 40.687C84.6993 40.687 87.0929 38.8746 90 38.8746C92.9324 38.8746 95.3326 40.687 98.9256 40.687C102.26 40.687 104.25 39.1803 104.25 36.6582C104.25 31.0584 95.8937 22.187 90 22.187ZM79.0691 21.2758C78.2972 18.7718 75.9192 17.1501 73.758 17.6531C71.5967 18.1561 70.4708 20.5936 71.2427 23.0976C72.0146 25.6016 74.3926 27.2232 76.5538 26.7203C78.7151 26.2173 79.841 23.7798 79.0691 21.2758ZM85.3569 19.7741C87.6532 19.1858 88.8021 16.1651 87.9234 13.0274C87.0446 9.88959 84.4707 7.82352 82.1744 8.41176C79.8781 9 78.7292 12.0207 79.6079 15.1585C80.4867 18.2963 83.0613 20.363 85.3569 19.7741ZM106.241 17.6538C104.08 17.1508 101.703 18.7725 100.93 21.2765C100.158 23.7805 101.284 26.218 103.445 26.721C105.607 27.2239 107.984 25.6023 108.757 23.0983C109.528 20.5943 108.403 18.1568 106.241 17.6538ZM94.6431 19.7741C96.9395 20.3623 99.5134 18.2963 100.392 15.1585C101.271 12.0207 100.122 9.00072 97.8256 8.41176C95.5293 7.82279 92.9554 9.88959 92.0767 13.0274C91.1979 16.1651 92.3468 19.1858 94.6431 19.7741Z" fill="#FD840B"/>
</g>
</g>
<defs>
<clipPath id="clip0_60_331">
<rect width="171" height="48" fill="white"/>
</clipPath>
<clipPath id="clip1_60_331">
<rect width="38" height="37" fill="white" transform="translate(71 6)"/>
</clipPath>
</defs>
</svg>
