<svg xmlns="http://www.w3.org/2000/svg" xmlns:xlink="http://www.w3.org/1999/xlink" width="741" height="121" viewBox="0 0 741 121"><defs><clipPath id="b"><rect width="741" height="121"/></clipPath></defs><g id="a" clip-path="url(#b)"><rect width="741" height="121" fill="#fff"/><circle cx="20" cy="20" r="20" transform="translate(46 10)" fill="#d43751"/><circle cx="20" cy="20" r="20" transform="translate(358 10)" fill="#d43751"/><circle cx="20" cy="20" r="20" transform="translate(202 9)" fill="#d43751"/><circle cx="20" cy="20" r="20" transform="translate(514 10)" fill="#d43751"/><circle cx="20" cy="20" r="20" transform="translate(670 10)" fill="#d43751"/><g transform="translate(52.801 16.801)"><path d="M19.965,12.232A7.732,7.732,0,1,1,12.232,4.5a7.732,7.732,0,0,1,7.732,7.732Z" fill="none" stroke="#fff" stroke-linecap="round" stroke-linejoin="round" stroke-width="3"/><path d="M29.179,29.179l-4.2-4.2" transform="translate(-7.282 -7.282)" fill="none" stroke="#fff" stroke-linecap="round" stroke-linejoin="round" stroke-width="3"/></g><text transform="translate(18 74)" font-size="18" font-family="SFProText-Semibold, SF Pro Text" font-weight="600" letter-spacing="0.025em"><tspan x="0" y="0">Empathize</tspan></text><text transform="translate(349 75)" font-size="18" font-family="SFProText-Semibold, SF Pro Text" font-weight="600" letter-spacing="0.025em"><tspan x="0" y="0">Ideate</tspan></text><text transform="translate(192 73)" font-size="18" font-family="SFProText-Semibold, SF Pro Text" font-weight="600" letter-spacing="0.025em"><tspan x="0" y="0">Define</tspan></text><text transform="translate(488 74)" font-size="18" font-family="SFProText-Semibold, SF Pro Text" font-weight="600" letter-spacing="0.025em"><tspan x="0" y="0">Prototype</tspan></text><text transform="translate(671 74)" font-size="18" font-family="SFProText-Semibold, SF Pro Text" font-weight="600" letter-spacing="0.025em"><tspan x="0" y="0">Test</tspan></text><text transform="translate(66 89)" fill="#6b6b6b" font-size="12" font-family="SFProText-Regular, SF Pro Text"><tspan x="-60.126" y="0">Background research</tspan><tspan x="-42.167" y="14">Online Surveys</tspan><tspan x="-48.806" y="28">1-on-1 Interviews</tspan></text><text transform="translate(378 90)" fill="#6b6b6b" font-size="12" font-family="SFProText-Regular, SF Pro Text"><tspan x="-41.543" y="0">Lo-Fi sketches</tspan><tspan x="-49.567" y="14">Whiteboard ideas</tspan></text><text transform="translate(222 88)" fill="#6b6b6b" font-size="12" font-family="SFProText-Regular, SF Pro Text"><tspan x="-47.065" y="0">Persona building</tspan><tspan x="-56.021" y="14">Competitor analysis</tspan></text><text transform="translate(534 89)" fill="#6b6b6b" font-size="12" font-family="SFProText-Regular, SF Pro Text"><tspan x="-55.629" y="0">High-fidelity design</tspan></text><text transform="translate(690 89)" fill="#6b6b6b" font-size="12" font-family="SFProText-Regular, SF Pro Text"><tspan x="-35.54" y="0">User Testing</tspan></text><path d="M18.381,6.036a4.177,4.177,0,0,0-6.476,0l-.882,1.012L10.14,6.036a4.178,4.178,0,0,0-6.476,0,5.809,5.809,0,0,0,0,7.425l.882,1.012L11.023,21.9,17.5,14.472l.882-1.012a5.807,5.807,0,0,0,0-7.425Z" transform="translate(678.977 16.804)" fill="none" stroke="#fff" stroke-linecap="round" stroke-linejoin="round" stroke-width="3"/><g transform="translate(213.3 20.3)" fill="none" stroke="#fff" stroke-width="1"><circle cx="8.7" cy="8.7" r="8.7" stroke="none"/><circle cx="8.7" cy="8.7" r="8.2" fill="none"/></g><line y2="4" transform="translate(222 20.5)" fill="none" stroke="#fff" stroke-width="1"/><line y2="4" transform="translate(222 33.7)" fill="none" stroke="#fff" stroke-width="1"/><line x1="4" transform="translate(226.5 29)" fill="none" stroke="#fff" stroke-width="1"/><line x1="4" transform="translate(213.5 29)" fill="none" stroke="#fff" stroke-width="1"/><g transform="translate(520.55 16.527)"><path d="M4.5,4.5l7.249,17.4,2.574-7.577L21.9,11.749Z" fill="none" stroke="#fff" stroke-linecap="round" stroke-linejoin="round" stroke-width="3"/><path d="M19.5,19.5l7,7" transform="translate(-4.1 -4.055)" fill="none" stroke="#fff" stroke-linecap="round" stroke-linejoin="round" stroke-width="3"/></g><path d="M17.252,1.928a2.719,2.719,0,0,1,2.175,4.35L18.339,7.366,14.533,3.559l1.087-1.088a2.706,2.706,0,0,1,1.631-.544ZM3.658,14.434,2.571,19.328l4.894-1.087L17.524,8.181,13.718,4.375ZM14.73,8.106,7.117,15.719l-.937-.937,7.613-7.612.937.937Z" transform="translate(366.729 19.372)" fill="#fff"/></g></svg>