<svg width="171" height="48" viewBox="0 0 171 48" fill="none" xmlns="http://www.w3.org/2000/svg">
<rect width="171" height="48" fill="white"/>
<path d="M31.77 30.62L32.52 32.12C32.24 32.72 31.85 33.32 31.35 33.92C30.85 34.5 30.33 35.02 29.79 35.48L22.11 34.73L20.88 35.48C20.04 35.18 19.39 34.73 18.93 34.13L20.1 24.92L19.74 14L20.61 13.4C20.83 13.44 21.13 13.55 21.51 13.73C21.91 13.91 22.3 14.11 22.68 14.33C23.06 14.55 23.34 14.76 23.52 14.96L23.19 25.31V31.82L31.77 30.62ZM41.4127 19.52C42.2127 19.6 42.9527 19.88 43.6327 20.36C44.3127 20.84 44.9127 21.42 45.4327 22.1C45.9527 22.76 46.3527 23.45 46.6327 24.17L46.3927 31.37C46.2327 31.69 45.9827 32.08 45.6427 32.54C45.3227 32.98 44.9627 33.41 44.5627 33.83C44.1827 34.25 43.8027 34.6 43.4227 34.88C42.8227 35.06 42.2527 35.2 41.7127 35.3C41.1727 35.42 40.5627 35.48 39.8827 35.48C39.2227 35.48 38.3927 35.44 37.3927 35.36C36.9927 35.2 36.5227 34.92 35.9827 34.52C35.4427 34.1 34.9527 33.64 34.5127 33.14C34.0727 32.62 33.7927 32.13 33.6727 31.67L34.0627 23.51C34.2227 23.11 34.4327 22.67 34.6927 22.19C34.9727 21.69 35.2727 21.21 35.5927 20.75C35.9327 20.29 36.2627 19.94 36.5827 19.7C37.1027 19.84 37.5527 20.06 37.9327 20.36C38.3127 20.64 38.6027 20.92 38.8027 21.2C38.2627 21.84 37.8627 22.66 37.6027 23.66C37.3427 24.66 37.1827 25.7 37.1227 26.78C37.0627 27.86 37.0827 28.87 37.1827 29.81C37.3027 30.73 37.4627 31.45 37.6627 31.97C38.5027 32.13 39.3427 32.19 40.1827 32.15C41.0427 32.09 41.8427 31.96 42.5827 31.76C43.0027 30.54 43.2327 29.3 43.2727 28.04C43.3127 26.76 43.2227 25.65 43.0027 24.71C42.3227 24.19 41.7027 23.78 41.1427 23.48C40.6027 23.16 39.9727 22.86 39.2527 22.58C39.6127 21.92 39.9427 21.38 40.2427 20.96C40.5627 20.52 40.9527 20.04 41.4127 19.52ZM52.4548 32.12L59.5648 30.38C59.7048 30.56 59.8448 30.91 59.9848 31.43C60.1448 31.95 60.2148 32.41 60.1948 32.81C59.3548 33.17 58.5048 33.52 57.6448 33.86C56.8048 34.2 56.0248 34.51 55.3048 34.79C54.6048 35.07 54.0348 35.3 53.5948 35.48C52.9748 35.32 52.3248 35.07 51.6448 34.73C50.9648 34.39 50.3448 33.99 49.7848 33.53C49.2248 33.05 48.8248 32.57 48.5848 32.09L49.0048 22.91C49.2848 22.41 49.6748 21.91 50.1748 21.41C50.6948 20.89 51.2048 20.42 51.7048 20C52.8648 19.74 53.9948 19.58 55.0948 19.52C56.2148 19.46 57.2848 19.51 58.3048 19.67C58.5648 19.83 58.8948 20.1 59.2948 20.48C59.7148 20.86 60.0248 21.17 60.2248 21.41L59.8048 26.21C59.0448 26.47 58.2148 26.47 57.3148 26.21L56.9248 22.73C56.2648 22.67 55.6148 22.66 54.9748 22.7C54.3348 22.74 53.6648 22.85 52.9648 23.03C52.6848 23.95 52.4848 24.95 52.3648 26.03C52.2448 27.09 52.1948 28.15 52.2148 29.21C52.2348 30.27 52.3148 31.24 52.4548 32.12ZM76.7585 31.13C76.9385 31.37 77.1185 31.71 77.2985 32.15C77.4785 32.59 77.5885 33.04 77.6285 33.5L73.5785 35.48C73.0985 35.34 72.5785 35.11 72.0185 34.79C71.4785 34.47 71.0685 34.18 70.7885 33.92L70.9085 31.73C69.9085 32.83 68.8985 33.71 67.8785 34.37C66.8585 35.03 65.9685 35.4 65.2085 35.48C64.9085 35.32 64.5385 35.04 64.0985 34.64C63.6785 34.22 63.2785 33.76 62.8985 33.26C62.5385 32.74 62.2985 32.25 62.1785 31.79L62.8085 23.51C63.1085 22.87 63.5385 22.23 64.0985 21.59C64.6585 20.93 65.2185 20.4 65.7785 20C67.2185 19.74 68.6185 19.59 69.9785 19.55C71.3385 19.49 72.8385 19.72 74.4785 20.24C74.6985 20.48 74.8985 20.77 75.0785 21.11C75.2585 21.45 75.4085 21.78 75.5285 22.1C75.6685 22.4 75.7485 22.63 75.7685 22.79C75.5685 23.67 75.2985 24.53 74.9585 25.37C74.6385 26.21 74.2485 27.01 73.7885 27.77L74.1485 31.79L76.7585 31.13ZM66.3185 31.82C67.0385 31.56 67.8285 31 68.6885 30.14C69.5685 29.28 70.3685 28.26 71.0885 27.08L71.2085 22.55C70.3885 22.53 69.5985 22.57 68.8385 22.67C68.0785 22.77 67.3585 22.92 66.6785 23.12C66.3185 24.12 66.0585 25.14 65.8985 26.18C65.7585 27.2 65.6885 28.15 65.6885 29.03C65.7085 29.89 65.7785 30.58 65.8985 31.1C66.0185 31.62 66.1585 31.86 66.3185 31.82ZM85.7562 31.13C85.9162 31.37 86.0862 31.71 86.2662 32.15C86.4662 32.59 86.5862 33.04 86.6262 33.5L82.5762 35.48C81.8362 35.14 81.1862 34.73 80.6262 34.25C80.0662 33.77 79.6462 33.27 79.3662 32.75L79.9962 22.91L80.2362 14.24L77.8962 14.84C77.7562 14.6 77.5862 14.27 77.3862 13.85C77.1862 13.41 77.0662 12.96 77.0262 12.5L81.0762 10.52C81.2762 10.54 81.5862 10.64 82.0062 10.82C82.4462 11 82.8762 11.21 83.2962 11.45C83.7162 11.69 84.0162 11.9 84.1962 12.08L82.9062 23.18L83.1462 31.82L85.7562 31.13Z" fill="black"/>
<path d="M99.7303 24.11C100.69 24.67 101.39 25.29 101.83 25.97C102.27 26.63 102.52 27.43 102.58 28.37C102.64 29.29 102.57 30.42 102.37 31.76C102.19 32.12 101.88 32.51 101.44 32.93C101.02 33.35 100.54 33.75 100 34.13C99.4603 34.49 98.9403 34.79 98.4403 35.03C97.9403 35.29 97.5303 35.44 97.2103 35.48L90.7003 34.58L89.2003 35.48C88.3603 35.18 87.7103 34.73 87.2503 34.13L88.4203 24.92L88.0603 14L88.9303 13.4C89.2103 13.44 89.6203 13.6 90.1603 13.88C90.7203 14.14 91.1803 14.41 91.5403 14.69C92.3203 14.29 93.1403 13.99 94.0003 13.79C94.8803 13.57 95.7303 13.44 96.5503 13.4C97.3703 13.36 98.1003 13.41 98.7403 13.55C99.2803 13.85 99.7803 14.23 100.24 14.69C100.72 15.15 101.14 15.61 101.5 16.07C101.86 16.53 102.13 16.93 102.31 17.27L102.07 21.77L99.7303 24.11ZM98.4403 16.88C97.5203 16.68 96.4403 16.64 95.2003 16.76C93.9603 16.86 92.8103 17.19 91.7503 17.75L91.6003 22.76L98.4403 21.68C98.5603 20.74 98.6203 19.86 98.6203 19.04C98.6403 18.22 98.5803 17.5 98.4403 16.88ZM91.5103 32.03L98.6803 31.37C99.0203 29.97 99.0903 28.79 98.8903 27.83C98.7103 26.85 98.2103 25.93 97.3903 25.07L91.5103 25.49V32.03ZM119.093 31.13C119.273 31.37 119.453 31.71 119.633 32.15C119.813 32.59 119.923 33.04 119.963 33.5L115.913 35.48C115.433 35.34 114.913 35.11 114.353 34.79C113.813 34.47 113.403 34.18 113.123 33.92L113.243 31.73C112.243 32.83 111.233 33.71 110.213 34.37C109.193 35.03 108.303 35.4 107.543 35.48C107.243 35.32 106.873 35.04 106.433 34.64C106.013 34.22 105.613 33.76 105.233 33.26C104.873 32.74 104.633 32.25 104.513 31.79L105.143 23.51C105.443 22.87 105.873 22.23 106.433 21.59C106.993 20.93 107.553 20.4 108.113 20C109.553 19.74 110.953 19.59 112.313 19.55C113.673 19.49 115.173 19.72 116.813 20.24C117.033 20.48 117.233 20.77 117.413 21.11C117.593 21.45 117.743 21.78 117.863 22.1C118.003 22.4 118.083 22.63 118.103 22.79C117.903 23.67 117.633 24.53 117.293 25.37C116.973 26.21 116.583 27.01 116.123 27.77L116.483 31.79L119.093 31.13ZM108.653 31.82C109.373 31.56 110.163 31 111.022 30.14C111.903 29.28 112.703 28.26 113.423 27.08L113.543 22.55C112.723 22.53 111.933 22.57 111.173 22.67C110.413 22.77 109.693 22.92 109.013 23.12C108.653 24.12 108.393 25.14 108.233 26.18C108.093 27.2 108.023 28.15 108.023 29.03C108.043 29.89 108.113 30.58 108.233 31.1C108.353 31.62 108.493 31.86 108.653 31.82ZM154.088 31.13C154.268 31.37 154.448 31.71 154.628 32.15C154.808 32.59 154.918 33.04 154.958 33.5L150.908 35.48C150.708 35.46 150.418 35.35 150.038 35.15C149.678 34.95 149.308 34.73 148.928 34.49C148.568 34.25 148.298 34.06 148.118 33.92L148.268 30.89C147.148 32.23 145.998 33.31 144.818 34.13C143.658 34.95 142.688 35.4 141.908 35.48C141.608 35.32 141.238 35.04 140.798 34.64C140.378 34.22 139.978 33.76 139.598 33.26C139.238 32.74 138.998 32.25 138.878 31.79L139.508 23.51C139.808 22.87 140.238 22.23 140.798 21.59C141.358 20.93 141.918 20.4 142.478 20C144.498 19.48 146.518 19.41 148.538 19.79L148.568 14.24L146.198 14.84C146.058 14.6 145.888 14.27 145.688 13.85C145.488 13.41 145.368 12.96 145.328 12.5L149.378 10.52C149.578 10.54 149.858 10.64 150.218 10.82C150.598 11 150.968 11.21 151.328 11.45C151.708 11.69 151.988 11.9 152.168 12.08L151.268 27.62L151.538 31.79L154.088 31.13ZM143.018 31.82C143.598 31.62 144.218 31.22 144.878 30.62C145.558 30 146.208 29.26 146.828 28.4C147.468 27.52 148.028 26.59 148.508 25.61L148.538 22.88C147.678 22.68 146.798 22.62 145.898 22.7C144.998 22.76 144.168 22.89 143.408 23.09C143.028 24.13 142.758 25.18 142.598 26.24C142.458 27.28 142.388 28.23 142.388 29.09C142.408 29.95 142.478 30.63 142.598 31.13C142.718 31.63 142.858 31.86 143.018 31.82Z" fill="#CD0A0A"/>
<path d="M135.781 18.0492L126.407 21.1867C126.216 21.2544 126.05 21.3892 125.932 21.5714C125.814 21.7536 125.75 21.9737 125.75 22.1998V30.8799C125.443 30.7955 125.128 30.7518 124.812 30.7498C123.26 30.7498 122 31.7014 122 32.8749C122 34.0483 123.26 35 124.812 35C126.365 35 127.625 34.0483 127.625 32.8749V25.1155L135.125 22.6251V28.7551C134.818 28.6704 134.503 28.6266 134.188 28.6246C132.635 28.6246 131.375 29.5763 131.375 30.7498C131.375 31.9232 132.635 32.8749 134.188 32.8749C135.74 32.8749 137 31.9236 137 30.7498V19.0616C137 18.8948 136.965 18.7303 136.898 18.5816C136.832 18.4329 136.735 18.304 136.617 18.2054C136.498 18.1068 136.36 18.0413 136.215 18.0142C136.07 17.987 135.921 17.999 135.781 18.0492Z" fill="#CD0A0A"/>
</svg>
